<?xml version="1.0" standalone="no"?>
<!DOCTYPE svg PUBLIC "-//W3C//DTD SVG 20010904//EN"
 "http://www.w3.org/TR/2001/REC-SVG-20010904/DTD/svg10.dtd">
<svg version="1.0" xmlns="http://www.w3.org/2000/svg"
 width="1417.000000pt" height="1417.000000pt" viewBox="0 0 1417.000000 1417.000000"
 preserveAspectRatio="xMidYMid meet">
<metadata>
Created by potrace 1.14, written by Peter Selinger 2001-2017
</metadata>
<g transform="translate(0.000000,1417.000000) scale(0.100000,-0.100000)"
fill="#000000" stroke="none">
<path d="M6877 12498 c-80 -17 -101 -18 -107 -8 -6 10 -29 11 -101 5 -52 -5
-168 -9 -259 -10 -198 -3 -370 -19 -382 -37 -6 -10 -8 -10 -8 1 0 11 -16 13
-82 7 -122 -9 -281 -28 -298 -34 -8 -3 -21 -4 -29 -3 -7 1 -11 -1 -8 -6 3 -4
-38 -9 -92 -10 -53 -2 -125 -9 -161 -17 l-65 -14 50 -3 c39 -2 31 -4 -40 -10
-117 -10 -118 -10 -131 -21 -7 -5 -27 -8 -45 -7 -34 1 -148 -19 -228 -41 -38
-10 -41 -13 -41 -45 0 -19 -4 -36 -8 -39 -4 -2 -6 11 -4 30 4 31 2 34 -22 34
-14 0 -26 -4 -26 -8 0 -5 -13 -7 -29 -4 -16 2 -50 -5 -77 -18 -27 -12 -98 -30
-159 -41 -240 -45 -440 -90 -455 -104 -9 -8 -23 -15 -31 -15 -31 -1 -362 -120
-383 -137 -40 -36 -75 -53 -108 -53 -18 0 -64 -15 -103 -34 -38 -19 -106 -44
-150 -56 -48 -13 -94 -33 -117 -51 -20 -16 -67 -43 -105 -60 -37 -17 -75 -37
-83 -44 -8 -7 -40 -23 -70 -35 -30 -12 -68 -34 -85 -50 -16 -16 -68 -43 -115
-61 -47 -18 -96 -43 -110 -55 -14 -13 -50 -34 -80 -48 -30 -14 -73 -35 -95
-47 -22 -12 -51 -28 -65 -35 -14 -7 -24 -18 -22 -24 1 -7 -2 -9 -8 -5 -11 7
-84 -34 -76 -42 10 -11 -101 -92 -141 -103 -23 -7 -54 -26 -70 -42 -15 -17
-62 -56 -103 -87 -41 -31 -104 -85 -140 -120 -36 -35 -79 -70 -95 -77 -17 -7
-84 -65 -149 -128 -65 -64 -123 -116 -130 -116 -17 0 -136 -123 -136 -141 0
-9 -12 -26 -28 -40 l-27 -24 23 26 c35 40 26 47 -13 9 -19 -18 -32 -36 -30
-40 3 -4 -3 -14 -13 -21 -16 -13 -16 -13 -2 5 8 11 10 17 4 15 -21 -7 -84 -91
-77 -101 3 -6 1 -8 -4 -5 -6 4 -34 -24 -62 -61 -28 -37 -62 -80 -75 -97 -70
-88 -98 -124 -127 -164 -18 -24 -40 -52 -50 -62 -10 -10 -30 -40 -43 -67 -14
-27 -31 -52 -38 -55 -16 -6 -54 -79 -67 -132 -7 -25 -31 -62 -66 -100 -30 -33
-55 -67 -55 -77 0 -9 -18 -39 -40 -67 -22 -28 -40 -58 -40 -68 0 -10 -22 -54
-50 -98 -27 -44 -50 -92 -50 -107 0 -15 -20 -68 -45 -119 -25 -51 -45 -99 -45
-106 0 -8 -7 -24 -15 -36 -8 -12 -17 -49 -20 -82 -4 -33 -15 -87 -25 -120 -15
-47 -35 -133 -45 -185 -11 -66 -30 -130 -37 -130 -5 0 -7 -3 -5 -7 9 -17 -13
-166 -32 -218 -15 -41 -21 -79 -21 -142 0 -54 -7 -110 -19 -152 -11 -40 -21
-116 -25 -191 -4 -69 -12 -156 -20 -194 -11 -55 -12 -141 -5 -430 8 -358 14
-445 44 -665 9 -62 14 -120 10 -128 -3 -8 0 -33 7 -55 9 -32 9 -41 -2 -48 -9
-6 -6 -12 14 -25 14 -10 26 -25 26 -34 0 -41 87 -393 99 -401 5 -3 22 -51 40
-107 17 -56 47 -140 67 -185 20 -46 41 -103 48 -128 15 -53 113 -268 132 -290
7 -9 20 -35 28 -57 8 -23 22 -54 32 -68 10 -15 25 -39 33 -54 97 -163 173
-274 230 -336 76 -81 169 -191 153 -182 -6 5 -12 4 -12 -1 0 -11 21 -30 33
-31 4 0 46 -41 94 -91 53 -56 92 -89 100 -86 8 3 11 1 8 -4 -8 -13 164 -186
227 -229 26 -17 66 -58 88 -91 22 -32 50 -62 62 -65 13 -4 73 -57 133 -119 61
-62 128 -120 149 -130 22 -10 58 -38 80 -63 23 -26 47 -42 57 -41 10 2 25 -6
34 -17 9 -11 13 -13 9 -5 -3 8 5 4 18 -10 14 -14 24 -28 22 -31 -9 -16 155
-129 188 -129 8 0 27 -13 43 -30 31 -33 69 -44 44 -13 -13 15 -12 15 8 3 12
-8 20 -17 17 -21 -2 -4 39 -31 93 -59 90 -49 97 -51 110 -34 7 9 15 15 18 12
3 -3 -1 -11 -10 -18 -21 -17 -2 -50 30 -50 13 0 36 -11 51 -25 14 -13 30 -22
34 -20 4 3 10 -2 13 -10 3 -8 52 -37 109 -65 57 -27 98 -50 93 -50 -11 -1 35
-29 48 -30 5 0 5 6 1 12 -6 9 -3 9 9 0 9 -8 25 -11 37 -7 16 5 20 2 20 -14 0
-13 12 -26 30 -36 16 -9 30 -12 30 -8 0 5 4 3 8 -4 12 -19 213 -123 246 -126
30 -3 125 -51 156 -79 8 -7 16 -12 17 -10 7 6 62 -12 118 -38 147 -69 172 -79
207 -85 21 -4 36 -11 33 -15 -8 -12 59 -32 80 -24 12 5 16 4 12 -3 -4 -6 -1
-11 6 -10 31 1 48 -4 42 -12 -8 -13 61 -34 86 -26 15 5 19 4 14 -5 -5 -9 -2
-10 14 -5 12 4 21 2 21 -4 0 -6 6 -8 14 -5 8 3 17 0 21 -5 3 -6 10 -9 15 -6 5
3 30 -3 57 -14 26 -10 67 -22 91 -26 23 -4 42 -11 42 -17 0 -6 9 -8 20 -5 13
3 18 1 13 -6 -4 -6 2 -8 15 -5 14 4 20 2 15 -5 -4 -6 2 -8 15 -5 14 4 20 2 15
-5 -4 -6 2 -8 15 -5 12 4 20 3 17 -2 -8 -12 24 -21 52 -14 19 5 24 4 18 -6 -5
-9 -2 -10 15 -5 15 5 20 3 16 -3 -7 -11 28 -27 42 -18 4 2 39 -4 77 -14 53
-14 71 -16 77 -7 7 11 12 3 10 -14 -1 -6 14 -11 73 -24 11 -3 7 2 -10 10 -35
17 -18 20 19 4 14 -7 23 -16 20 -20 -3 -5 2 -6 10 -3 9 3 16 1 16 -5 0 -6 7
-8 15 -5 8 4 15 2 15 -4 0 -6 9 -8 20 -5 11 3 20 1 20 -4 0 -5 28 -8 63 -7
l62 1 -50 -7 c-50 -7 -50 -7 -10 -8 22 -1 55 -6 73 -11 20 -6 30 -6 27 0 -3 5
1 6 9 3 9 -3 16 -10 16 -16 0 -5 4 -7 8 -4 11 7 156 -15 162 -24 3 -5 56 -13
119 -19 108 -11 239 -34 271 -48 8 -3 26 -5 40 -5 23 2 23 1 5 -8 -15 -7 -10
-9 21 -4 26 3 45 1 49 -5 3 -6 10 -9 14 -6 5 2 46 -2 92 -10 267 -46 1183 -74
1304 -40 44 12 46 14 20 16 -25 1 -26 2 -7 6 13 3 29 0 36 -6 9 -8 24 1 56 34
24 25 48 45 53 45 6 0 -11 -18 -37 -41 -25 -22 -44 -45 -40 -50 8 -14 241 -9
309 6 91 21 175 33 169 24 -9 -15 218 3 349 27 70 13 131 23 135 22 4 -1 15 2
25 7 9 4 26 5 37 2 11 -3 23 -1 26 4 3 5 52 9 110 9 77 0 132 7 212 25 59 14
202 41 319 60 117 19 248 45 293 59 45 14 91 26 104 26 13 0 41 6 62 14 22 7
44 11 49 10 6 -2 37 5 70 15 42 13 54 20 40 24 -17 4 106 12 129 8 17 -3 46
11 41 20 -3 5 1 6 9 3 9 -3 16 -2 16 4 0 5 19 12 43 16 85 14 278 66 319 87
56 29 176 69 204 69 13 0 57 15 98 34 42 19 76 33 76 30 0 -3 7 2 16 10 8 9
20 14 25 11 5 -4 9 -2 9 4 0 5 10 13 21 16 15 5 18 10 10 15 -7 4 7 10 33 13
25 4 63 14 83 23 21 10 41 16 46 16 4 -1 7 3 7 9 0 5 4 8 9 5 5 -3 12 1 15 10
4 9 13 14 21 10 8 -3 15 -1 15 4 0 6 14 10 30 10 34 0 122 41 159 74 13 11 21
15 17 9 -9 -17 -3 -16 40 2 20 8 33 19 29 25 -3 5 0 10 7 10 7 0 34 21 60 47
34 33 48 42 48 30 0 -22 7 -21 59 8 23 14 50 25 58 25 9 0 39 15 67 33 86 56
143 87 150 80 3 -3 6 -1 6 6 0 7 4 10 9 7 5 -4 11 -2 13 3 1 5 43 32 92 61 49
29 104 67 121 85 18 17 39 32 46 32 27 1 167 72 180 91 8 10 56 45 107 77 50
32 92 63 92 69 1 6 55 51 120 101 66 49 120 93 120 96 0 17 106 122 140 139
20 10 79 60 131 109 51 50 94 91 96 91 10 0 166 165 192 204 17 24 44 55 60
68 16 13 34 34 41 48 7 14 30 45 50 70 53 64 144 198 169 247 11 22 34 56 52
75 17 18 49 69 71 113 22 44 44 82 49 83 5 2 9 9 9 15 0 15 57 136 73 155 6 8
17 28 23 46 7 17 47 112 89 211 87 205 89 209 105 288 6 31 16 57 21 57 5 0 9
11 9 24 0 13 7 40 16 61 24 58 84 310 84 355 0 21 15 124 34 227 19 103 37
233 40 288 4 55 11 134 16 175 5 41 12 221 15 400 3 179 11 361 16 405 7 60 5
130 -7 280 -10 110 -20 202 -24 205 -4 3 -10 79 -14 170 -3 91 -13 194 -21
230 -8 36 -14 89 -15 118 0 29 -4 60 -10 70 -5 9 -23 87 -41 172 -17 85 -35
164 -40 175 -4 11 -29 85 -55 165 -29 92 -54 153 -68 166 -13 12 -39 70 -60
129 -20 59 -57 146 -81 194 -46 93 -170 293 -202 326 -11 11 -34 45 -52 75
-18 30 -45 67 -60 81 -72 70 -241 270 -241 286 0 5 -17 17 -39 26 -21 10 -54
33 -72 51 -18 19 -37 32 -41 30 -5 -3 -7 -1 -6 4 5 18 -72 102 -92 102 -11 0
-19 3 -19 8 3 17 -2 31 -22 56 -20 25 -23 26 -39 11 -22 -20 -50 -9 -50 19 0
14 -28 50 -78 99 -71 71 -105 96 -86 65 5 -9 3 -9 -9 1 -9 7 -15 17 -12 21 7
11 -104 112 -115 105 -6 -3 -10 -3 -10 2 0 4 -21 22 -45 38 -25 17 -45 33 -45
36 0 12 -118 98 -125 91 -5 -4 -5 -1 -1 6 13 22 -24 52 -119 97 -59 28 -104
57 -130 85 -65 68 -130 112 -346 230 -112 62 -219 124 -239 140 -63 50 -154
100 -182 100 -16 0 -28 4 -28 8 0 9 -84 52 -102 52 -6 0 -21 -8 -32 -17 -17
-15 -19 -15 -8 -1 15 19 14 20 -58 47 -66 25 -66 25 -49 4 13 -16 12 -17 -3
-4 -10 7 -15 17 -12 22 3 5 -18 20 -46 32 -28 13 -48 26 -45 29 10 9 -44 35
-90 44 -22 4 -78 26 -125 49 -47 23 -107 47 -133 54 -27 6 -76 25 -110 41 -34
16 -84 34 -112 41 -27 6 -93 24 -145 39 -129 38 -223 60 -254 60 -15 0 -53 13
-86 30 -63 32 -76 34 -270 55 -98 11 -123 16 -161 36 -26 13 -73 23 -138 28
-91 8 -220 37 -231 51 -11 15 -130 30 -234 30 -71 0 -129 6 -161 16 -51 15
-254 44 -491 69 -72 7 -311 18 -530 24 -220 6 -448 13 -509 16 -87 3 -131 0
-208 -17z m-149 -154 l-3 -26 -29 30 -28 30 28 15 c27 14 29 14 32 -4 2 -10 2
-30 0 -45z m-1251 30 c-3 -3 -12 -4 -19 -1 -8 3 -5 6 6 6 11 1 17 -2 13 -5z
m2318 -63 c327 -11 527 -30 705 -67 63 -14 148 -27 188 -29 71 -4 123 -12 242
-36 30 -5 88 -14 128 -19 41 -5 106 -18 145 -30 39 -12 105 -25 147 -29 41 -5
89 -15 106 -24 16 -8 117 -32 223 -52 107 -19 202 -40 212 -45 10 -6 28 -10
41 -10 13 0 41 -9 63 -20 22 -11 53 -20 70 -20 38 0 181 -47 199 -66 8 -8 33
-14 55 -14 27 0 61 -11 104 -35 35 -19 70 -35 78 -35 8 0 32 -9 54 -19 22 -10
67 -30 100 -44 33 -14 89 -39 125 -55 36 -16 99 -44 140 -61 41 -18 89 -39
107 -47 17 -8 37 -14 45 -14 8 0 35 -13 60 -29 25 -16 56 -32 69 -36 13 -4 38
-16 55 -26 17 -11 38 -19 47 -19 8 0 37 -15 63 -34 30 -20 68 -36 96 -40 36
-5 54 -15 75 -40 17 -19 76 -58 147 -95 65 -34 135 -74 155 -90 20 -16 50 -35
67 -44 17 -9 36 -23 44 -31 7 -9 31 -25 54 -35 22 -10 72 -46 109 -80 37 -33
73 -61 78 -61 6 0 36 -24 67 -52 31 -29 75 -62 97 -73 37 -18 237 -211 248
-238 2 -7 31 -30 63 -51 64 -42 111 -86 308 -285 70 -72 132 -129 136 -126 5
3 12 0 16 -6 5 -8 3 -9 -7 -4 -8 4 -4 -2 8 -14 12 -11 34 -41 48 -65 18 -30
34 -45 53 -49 20 -4 39 -22 67 -64 21 -32 57 -83 80 -113 66 -87 205 -334 251
-444 23 -56 55 -130 71 -166 70 -151 82 -184 73 -200 -7 -12 -1 -26 19 -51 19
-23 30 -49 33 -79 2 -25 26 -112 51 -193 45 -141 68 -259 87 -442 4 -44 13
-100 20 -125 11 -47 33 -683 33 -985 -1 -176 -12 -318 -38 -458 -8 -45 -19
-138 -25 -207 -16 -202 -28 -277 -64 -430 -19 -80 -41 -183 -50 -229 -8 -46
-19 -87 -23 -90 -4 -3 -30 -71 -56 -151 -27 -80 -59 -167 -72 -195 -57 -123
-74 -163 -85 -205 -15 -58 -98 -229 -144 -298 -20 -30 -57 -94 -83 -144 -26
-50 -74 -127 -107 -171 -34 -44 -72 -99 -86 -122 -14 -24 -33 -51 -41 -62 -9
-10 -29 -42 -43 -71 -15 -29 -30 -50 -35 -48 -5 3 -28 -18 -52 -46 -24 -29
-37 -48 -29 -44 8 5 -49 -54 -126 -130 -101 -99 -149 -153 -165 -188 -12 -27
-25 -44 -27 -38 -2 7 -12 12 -23 12 -20 0 -131 -77 -164 -114 -11 -12 -49 -42
-84 -66 -35 -23 -82 -59 -104 -79 -23 -20 -37 -30 -33 -23 16 26 -30 -5 -48
-33 l-16 -25 62 -2 63 -2 -65 -3 c-59 -3 -67 -7 -91 -35 -23 -27 -29 -30 -42
-19 -13 10 -25 7 -71 -23 -30 -19 -79 -47 -108 -62 -29 -14 -91 -55 -138 -89
-55 -41 -99 -66 -125 -70 -22 -4 -47 -13 -55 -20 -27 -22 -80 -46 -90 -40 -6
3 -10 1 -10 -5 0 -6 -4 -9 -9 -6 -5 4 -11 3 -13 -1 -2 -5 -28 -30 -58 -58 -38
-35 -44 -39 -20 -12 l35 38 -140 -67 c-152 -73 -248 -131 -239 -146 3 -4 2 -8
-3 -7 -4 1 -15 0 -23 -4 -8 -3 -33 -11 -55 -18 -22 -6 -48 -18 -59 -25 -10 -7
-25 -10 -34 -7 -10 4 -13 2 -8 -5 5 -8 2 -10 -8 -6 -8 3 -29 -4 -47 -16 -24
-18 -28 -25 -17 -32 10 -7 10 -8 -2 -6 -24 4 -232 -80 -226 -91 2 -3 -15 -7
-39 -8 -42 -2 -111 -34 -99 -46 3 -3 -16 -9 -43 -13 -26 -3 -64 -15 -84 -25
-19 -9 -67 -27 -105 -39 -38 -12 -78 -28 -89 -35 -11 -7 -36 -15 -55 -18 -19
-4 -44 -8 -55 -10 -11 -2 -49 -13 -85 -23 -60 -17 -63 -19 -35 -25 27 -6 26
-7 -13 -8 -24 0 -82 -12 -130 -25 -48 -14 -114 -30 -147 -37 -33 -7 -65 -16
-72 -22 -7 -5 -17 -6 -23 -2 -5 3 -10 1 -10 -5 0 -7 -8 -9 -21 -5 -15 5 -19 4
-14 -4 4 -8 -1 -10 -17 -6 -12 3 -48 -1 -78 -9 -49 -12 -51 -14 -21 -15 46 -1
32 -13 -16 -13 -21 0 -76 -9 -123 -20 -47 -11 -116 -24 -155 -28 -38 -5 -88
-13 -110 -20 -99 -28 -303 -73 -328 -72 -15 1 -26 -2 -23 -6 2 -4 -21 -7 -52
-8 -86 -1 -268 -21 -352 -39 -41 -9 -120 -16 -175 -16 -55 -1 -122 -4 -150 -9
-40 -6 -26 -8 68 -7 64 0 119 -2 122 -5 3 -2 -202 -8 -455 -11 -254 -4 -466
-9 -471 -13 -14 -8 -599 -3 -719 6 -52 4 -118 15 -147 23 -28 8 -98 18 -155
22 -56 4 -139 13 -183 21 -44 8 -124 14 -178 14 -63 0 -108 5 -125 14 -15 7
-60 16 -101 18 -40 3 -76 9 -80 14 -3 5 -28 11 -56 12 -27 2 -52 7 -55 12 -10
16 -61 30 -111 30 -54 0 -91 10 -268 71 -62 21 -130 39 -150 39 -20 1 -54 7
-76 15 -22 8 -54 15 -71 15 -38 0 -107 20 -229 65 -102 38 -214 76 -232 77 -7
1 -10 5 -7 9 5 8 -14 15 -61 23 -71 13 -93 20 -140 46 -27 15 -78 33 -113 40
-38 8 -113 38 -187 76 -68 34 -143 68 -166 74 -24 7 -86 33 -139 60 -52 26
-117 55 -144 64 -27 9 -61 25 -75 35 -14 10 -49 29 -77 43 -27 14 -95 55 -150
91 -54 35 -121 75 -149 87 -154 68 -234 109 -282 143 -30 20 -61 37 -69 37
-23 0 -66 25 -93 54 -17 18 -39 28 -73 32 -38 5 -58 15 -91 46 -70 65 -200
158 -231 165 -19 4 -31 15 -38 33 -5 16 -33 44 -65 66 -31 21 -107 89 -169
149 -111 108 -176 165 -188 165 -3 0 -6 -10 -7 -22 0 -13 -6 -3 -14 23 -15 55
-22 69 -38 69 -7 1 -34 30 -62 67 -27 36 -67 78 -89 94 -21 16 -48 41 -60 57
-34 46 -48 61 -110 126 -59 60 -125 152 -182 253 -16 29 -36 53 -44 53 -8 0
-23 20 -34 46 -10 25 -25 48 -32 51 -8 3 -31 35 -51 72 -88 162 -206 361 -213
361 -9 0 -50 118 -50 146 0 10 -20 59 -45 108 -24 49 -42 93 -39 97 2 4 -9 40
-25 81 -34 83 -57 176 -66 260 -4 39 -12 62 -25 71 -14 10 -18 26 -18 87 0 41
-8 100 -17 130 -9 30 -20 93 -25 140 -4 47 -19 180 -32 295 -20 184 -22 253
-21 553 2 290 6 362 23 468 11 68 20 149 20 179 0 30 9 93 20 140 11 47 20
106 20 130 0 24 4 46 9 49 5 3 14 51 21 106 7 55 17 100 22 100 4 0 8 15 8 33
0 17 9 70 20 117 11 47 27 121 36 164 8 44 22 92 30 107 7 15 38 100 69 190
30 89 61 169 68 178 8 9 24 36 37 61 12 25 31 62 41 82 10 20 19 46 19 57 0
11 9 26 20 34 26 18 43 73 30 97 -7 13 2 27 41 66 28 27 73 83 101 124 29 41
68 92 87 113 20 21 56 76 81 123 43 82 110 167 177 228 18 16 33 35 33 42 0 7
8 19 18 26 9 7 22 25 29 39 6 14 33 44 59 65 78 65 214 206 239 251 10 18 31
37 47 44 15 6 45 27 65 47 58 54 246 209 300 246 26 18 138 95 248 171 110 76
213 141 229 146 17 5 47 22 67 39 50 40 179 110 203 110 11 0 40 13 65 29 25
17 78 44 116 62 39 18 72 36 75 40 17 24 85 68 116 73 19 4 65 27 100 52 45
30 76 44 99 44 21 0 57 14 99 40 36 22 71 40 78 40 6 0 19 6 27 14 9 8 75 33
146 56 72 24 159 57 195 75 55 28 402 135 436 135 6 0 17 11 24 25 7 13 17 22
22 19 4 -3 8 0 8 6 0 6 5 8 11 4 8 -4 7 -9 -2 -15 -28 -17 0 -19 60 -3 34 8
67 13 74 11 7 -2 32 3 57 13 25 9 78 22 118 29 39 7 72 17 72 22 0 5 21 9 48
9 50 0 184 22 242 40 85 26 219 50 337 60 71 7 179 20 241 31 63 10 131 19
152 19 34 0 39 3 51 36 l14 37 33 -27 32 -28 188 17 c269 25 406 33 582 35 85
1 175 5 200 8 57 9 555 5 945 -7z m-3981 -407 c3 -8 2 -12 -4 -9 -6 3 -10 10
-10 16 0 14 7 11 14 -7z m7231 -214 c10 -11 16 -20 13 -20 -3 0 -13 9 -23 20
-10 11 -16 20 -13 20 3 0 13 -9 23 -20z m-8529 -407 c-8 -15 -15 -25 -16 -21
0 12 23 58 27 54 3 -2 -2 -17 -11 -33z m-186 -7 c0 -2 -8 -10 -17 -17 -16 -13
-17 -12 -4 4 13 16 21 21 21 13z m100 -19 c0 -13 -15 -38 -35 -57 l-35 -34 0
42 c0 35 4 44 28 56 37 21 42 20 42 -7z m9883 -304 c-7 -2 -19 -2 -25 0 -7 3
-2 5 12 5 14 0 19 -2 13 -5z m-11213 -757 c0 -2 -8 -10 -17 -17 -16 -13 -17
-12 -4 4 13 16 21 21 21 13z m-140 -290 c0 -2 -8 -10 -17 -17 -16 -13 -17 -12
-4 4 13 16 21 21 21 13z m13040 -1405 c0 -6 -4 -13 -10 -16 -5 -3 -10 1 -10 9
0 9 5 16 10 16 6 0 10 -4 10 -9z m77 -963 c-3 -8 -6 -5 -6 6 -1 11 2 17 5 13
3 -3 4 -12 1 -19z m-13787 -1648 c0 -5 -2 -10 -4 -10 -3 0 -8 5 -11 10 -3 6
-1 10 4 10 6 0 11 -4 11 -10z m914 -1676 c3 -8 2 -12 -4 -9 -6 3 -10 10 -10
16 0 14 7 11 14 -7z m11986 -44 c0 -37 -4 -50 -14 -50 -8 0 -18 4 -21 10 -3 6
1 7 9 4 9 -3 16 -1 16 5 0 6 -10 12 -22 12 l-23 2 23 4 c17 3 23 11 22 26 -3
28 -1 37 5 37 3 0 5 -22 5 -50z m-12030 -70 c0 -5 -5 -10 -11 -10 -5 0 -7 5
-4 10 3 6 8 10 11 10 2 0 4 -4 4 -10z m80 -20 c0 -5 -8 -10 -17 -10 -15 0 -16
2 -3 10 19 12 20 12 20 0z m11790 -80 c0 -4 -7 -10 -15 -14 -11 -4 -15 2 -15
21 0 21 2 24 15 13 8 -7 15 -16 15 -20z m-315 -260 c-3 -5 -12 -10 -18 -10 -7
0 -6 4 3 10 19 12 23 12 15 0z m-38 -132 c-3 -8 -6 -5 -6 6 -1 11 2 17 5 13 3
-3 4 -12 1 -19z m-182 -78 c3 -6 -1 -7 -9 -4 -18 7 -21 14 -7 14 6 0 13 -4 16
-10z m-48 -42 c-3 -8 -6 -5 -6 6 -1 11 2 17 5 13 3 -3 4 -12 1 -19z m43 8 c0
-2 -8 -10 -17 -17 -16 -13 -17 -12 -4 4 13 16 21 21 21 13z m-10628 -76 c6 0
9 -2 6 -5 -9 -10 -58 17 -58 32 0 9 7 6 20 -7 11 -11 25 -20 32 -20z m10498
-26 c0 -19 -4 -33 -8 -30 -8 5 -4 66 4 66 2 0 4 -16 4 -36z m-132 -41 c-20 -3
-25 -9 -22 -21 5 -14 4 -14 -4 -2 -15 20 -5 30 26 29 l27 -2 -27 -4z m-55 -53
c-4 -16 -1 -18 17 -15 13 2 20 1 16 -2 -21 -22 -53 -5 -42 22 8 22 15 18 9 -5z
m12 -50 c-3 -5 -12 -10 -18 -10 -7 0 -6 4 3 10 19 12 23 12 15 0z m-9765 -146
c0 -19 -35 -18 -54 2 -9 8 -16 27 -16 40 l0 25 35 -27 c19 -14 35 -33 35 -40z
m-213 41 c0 -8 -4 -12 -9 -9 -5 3 -6 10 -3 15 9 13 12 11 12 -6z m9673 12 c0
-2 -15 -16 -32 -33 l-33 -29 29 33 c28 30 36 37 36 29z m-9609 -58 c35 -33 26
-29 -25 9 -16 12 -24 22 -19 22 6 0 26 -14 44 -31z m250 -66 c13 -16 12 -17
-3 -4 -10 7 -18 15 -18 17 0 8 8 3 21 -13z m238 -80 c-1 -23 -2 -24 -6 -6 -2
12 -12 24 -21 26 -12 3 -10 5 6 6 18 1 22 -4 21 -26z m134 -62 c16 -27 16 -29
-2 -45 -27 -24 -31 -20 -31 29 0 52 9 57 33 16z m117 -125 c0 -3 -4 -8 -10
-11 -5 -3 -10 -1 -10 4 0 6 5 11 10 11 6 0 10 -2 10 -4z m311 -78 l23 -33 -27
24 c-15 14 -27 28 -27 33 0 15 8 8 31 -24z m8052 -5 c-7 -2 -21 -2 -30 0 -10
3 -4 5 12 5 17 0 24 -2 18 -5z m-8043 -169 c0 -2 -9 0 -20 6 -11 6 -20 13 -20
16 0 2 9 0 20 -6 11 -6 20 -13 20 -16z m283 -26 c6 -22 5 -22 -8 -4 -17 22
-20 40 -6 32 5 -3 11 -16 14 -28z m6362 -158 c-3 -5 -14 -10 -23 -10 -15 0
-15 2 -2 10 20 13 33 13 25 0z m-5310 -140 c3 -5 1 -10 -4 -10 -6 0 -11 5 -11
10 0 6 2 10 4 10 3 0 8 -4 11 -10z m332 -76 c-3 -3 -12 -4 -19 -1 -8 3 -5 6 6
6 11 1 17 -2 13 -5z m300 -40 c-3 -3 -12 -4 -19 -1 -8 3 -5 6 6 6 11 1 17 -2
13 -5z m4360 -40 c-3 -3 -12 -4 -19 -1 -8 3 -5 6 6 6 11 1 17 -2 13 -5z
m-4802 -34 c3 -5 1 -10 -4 -10 -6 0 -11 5 -11 10 0 6 2 10 4 10 3 0 8 -4 11
-10z m962 -26 c-3 -3 -12 -4 -19 -1 -8 3 -5 6 6 6 11 1 17 -2 13 -5z m80 -10
c-3 -3 -12 -4 -19 -1 -8 3 -5 6 6 6 11 1 17 -2 13 -5z m80 -10 c-3 -3 -12 -4
-19 -1 -8 3 -5 6 6 6 11 1 17 -2 13 -5z m-201 -33 l24 -19 -23 -6 c-21 -7 -21
-7 -2 -16 14 -6 15 -9 5 -9 -17 -1 -89 35 -105 51 -7 7 -7 9 0 5 6 -3 17 -2
25 4 23 14 50 11 76 -10z m371 13 c-3 -3 -12 -4 -19 -1 -8 3 -5 6 6 6 11 1 17
-2 13 -5z m146 -11 c-13 -2 -33 -2 -45 0 -13 2 -3 4 22 4 25 0 35 -2 23 -4z
m-440 -30 c-7 -2 -19 -2 -25 0 -7 3 -2 5 12 5 14 0 19 -2 13 -5z m52 -41 c7
-23 7 -24 -12 -5 -11 10 -17 24 -15 31 6 16 17 5 27 -26z m712 32 c-3 -3 -12
-4 -19 -1 -8 3 -5 6 6 6 11 1 17 -2 13 -5z m127 -34 c-10 -4 -23 -5 -28 -2 -5
3 -1 9 10 12 10 4 23 5 28 2 5 -3 1 -9 -10 -12z m153 14 c-3 -3 -12 -4 -19 -1
-8 3 -5 6 6 6 11 1 17 -2 13 -5z m-94 -11 c-7 -2 -13 -12 -13 -20 0 -9 -3 -14
-6 -10 -10 10 4 37 18 36 10 0 10 -2 1 -6z m404 -9 c-3 -3 -12 -4 -19 -1 -8 3
-5 6 6 6 11 1 17 -2 13 -5z m116 -11 c-7 -2 -19 -2 -25 0 -7 3 -2 5 12 5 14 0
19 -2 13 -5z m-275 -14 c18 -6 30 -15 27 -19 -3 -5 3 -16 12 -26 16 -16 16
-16 -7 -9 -14 4 -36 17 -50 30 -14 12 -32 25 -40 28 -10 4 -8 6 6 6 12 1 35
-4 52 -10z m226 0 c-7 -13 45 -71 58 -63 4 3 8 0 8 -5 0 -21 -18 -11 -54 29
-40 45 -43 50 -20 50 8 0 12 -5 8 -11z m86 -4 c0 -8 -2 -15 -4 -15 -2 0 -6 7
-10 15 -3 8 -1 15 4 15 6 0 10 -7 10 -15z m-482 -2 c-10 -2 -28 -2 -40 0 -13
2 -5 4 17 4 22 1 32 -1 23 -4z m867 -23 c3 -5 2 -10 -4 -10 -5 0 -13 5 -16 10
-3 6 -2 10 4 10 5 0 13 -4 16 -10z m-591 -65 c-5 -11 -20 -15 -58 -13 l-51 1
45 4 c25 3 49 8 55 14 13 13 15 11 9 -6z m-146 -2 c-10 -2 -26 -2 -35 0 -10 3
-2 5 17 5 19 0 27 -2 18 -5z m215 -10 c-13 -2 -33 -2 -45 0 -13 2 -3 4 22 4
25 0 35 -2 23 -4z m250 0 c-7 -2 -19 -2 -25 0 -7 3 -2 5 12 5 14 0 19 -2 13
-5z"/>
<path d="M7168 12083 c-91 -3 -97 -5 -101 -26 -4 -22 -4 -22 -6 1 l-1 23 -172
-5 c-230 -7 -368 -23 -242 -28 45 -2 -339 -17 -430 -17 -21 0 -53 -5 -70 -11
-18 -6 -68 -12 -112 -14 -139 -7 -428 -36 -449 -45 -30 -14 -133 -31 -181 -31
-23 0 -54 -4 -68 -10 -14 -5 -51 -10 -81 -11 -30 -1 -53 -5 -51 -8 2 -3 -28
-7 -67 -9 -39 -2 -74 -8 -78 -14 -4 -7 -8 -5 -11 3 -4 12 -17 11 -74 -4 -38
-9 -80 -17 -95 -17 -14 0 -29 -4 -35 -9 -5 -5 -83 -25 -174 -45 -91 -20 -187
-42 -215 -48 -122 -27 -161 -63 -92 -86 17 -5 24 -10 15 -11 -12 -1 -18 -9
-18 -27 0 -20 -4 -25 -16 -20 -9 3 -24 6 -34 6 -9 0 -28 16 -41 35 -22 32 -27
34 -64 29 -22 -3 -82 -19 -133 -36 -77 -25 -93 -33 -89 -48 6 -23 -57 -46 -92
-32 -17 6 -44 3 -90 -11 -36 -11 -67 -23 -69 -27 -1 -3 -15 -5 -30 -3 -18 3
-35 -3 -49 -16 -12 -12 -26 -21 -31 -21 -4 0 -17 -8 -28 -17 -10 -10 -23 -18
-29 -18 -18 0 -120 -37 -135 -49 -18 -14 -72 -32 -123 -42 -25 -4 -44 -15 -55
-32 -18 -28 -68 -52 -108 -52 -39 0 -104 -21 -104 -35 0 -10 -97 -59 -112 -56
-5 0 -8 -4 -8 -9 0 -5 -3 -9 -7 -8 -5 0 -15 -1 -23 -5 -47 -17 -83 -26 -91
-21 -5 3 -9 0 -9 -6 0 -6 -5 -8 -10 -5 -5 3 -10 1 -10 -5 0 -6 -4 -9 -9 -6 -5
3 -12 -1 -15 -10 -4 -9 -13 -14 -21 -10 -8 3 -15 1 -15 -4 0 -9 -64 -47 -83
-49 -18 -2 -64 -31 -84 -54 -11 -14 -35 -28 -51 -32 -16 -3 -53 -28 -81 -54
-28 -26 -68 -56 -89 -66 -20 -9 -50 -24 -65 -31 -16 -8 -35 -14 -44 -14 -8 0
-40 -22 -72 -50 -31 -27 -72 -56 -91 -64 -49 -20 -155 -121 -145 -137 5 -8 4
-10 -3 -5 -7 4 -12 3 -12 -3 0 -6 -6 -8 -13 -6 -7 3 -27 -10 -45 -30 -19 -19
-40 -35 -47 -35 -7 0 -44 -34 -82 -75 -37 -41 -93 -99 -123 -127 -109 -104
-166 -165 -243 -258 -44 -52 -98 -117 -120 -144 -23 -26 -47 -59 -54 -71 -7
-12 -19 -25 -27 -28 -12 -5 -61 -71 -101 -138 -5 -9 -27 -38 -47 -65 -21 -27
-47 -68 -59 -91 -11 -24 -25 -43 -30 -43 -5 0 -19 -21 -30 -47 -11 -27 -28
-55 -38 -63 -10 -8 -34 -57 -54 -107 -21 -51 -46 -102 -57 -113 -11 -11 -20
-29 -20 -40 0 -11 -4 -20 -9 -20 -9 0 -64 -133 -61 -146 1 -4 -3 -10 -9 -14
-6 -3 -15 -31 -20 -61 -8 -49 -24 -98 -67 -209 -7 -19 -13 -47 -14 -61 0 -14
-9 -52 -21 -85 -26 -74 -32 -102 -74 -359 -80 -492 -86 -566 -82 -1020 3 -402
13 -570 42 -730 61 -344 87 -470 110 -535 14 -41 31 -97 36 -125 12 -67 14
-73 21 -81 4 -3 4 -12 1 -20 -3 -8 -1 -14 5 -14 6 0 16 -17 23 -37 6 -21 20
-56 29 -78 10 -22 27 -65 39 -95 17 -44 21 -49 18 -22 l-4 32 27 -25 c14 -14
31 -25 38 -25 15 0 16 -26 2 -35 -6 -4 -19 4 -30 17 l-19 23 -1 -51 c0 -33 5
-56 14 -63 8 -7 20 -34 27 -62 7 -27 16 -49 20 -49 4 0 14 -18 23 -41 17 -42
113 -192 128 -197 4 -2 17 -24 27 -48 11 -24 27 -47 35 -50 8 -3 22 -21 30
-39 9 -19 29 -39 46 -47 19 -8 33 -23 37 -38 6 -24 39 -70 83 -115 11 -12 20
-25 20 -31 0 -6 42 -51 93 -102 52 -50 147 -149 212 -219 86 -94 132 -135 172
-156 36 -18 65 -43 86 -74 91 -130 157 -196 269 -271 62 -41 136 -94 165 -116
48 -38 129 -93 156 -107 7 -3 30 -15 52 -28 22 -12 108 -55 190 -96 83 -41
155 -79 162 -85 7 -5 16 -10 20 -10 4 0 34 -20 66 -45 32 -25 104 -70 160 -98
56 -29 111 -58 122 -65 11 -6 42 -19 70 -27 27 -9 72 -32 99 -52 29 -21 74
-41 108 -49 68 -16 107 -35 214 -104 44 -27 91 -50 105 -50 14 0 90 -31 169
-70 79 -38 150 -70 159 -70 18 0 405 -127 446 -146 17 -8 58 -19 90 -24 33 -4
96 -18 140 -30 44 -12 122 -30 173 -41 51 -10 105 -25 120 -33 15 -7 54 -17
87 -20 64 -8 169 -27 275 -51 36 -8 96 -14 133 -15 40 0 66 -4 62 -9 -3 -6 20
-8 57 -6 35 2 54 0 44 -4 -26 -10 106 -36 284 -56 74 -8 167 -19 205 -25 39
-5 104 -11 146 -14 41 -3 99 -10 129 -16 29 -5 100 -11 159 -11 70 -1 94 -4
71 -9 -19 -3 79 -7 218 -8 236 -1 252 0 240 16 -11 15 -10 15 8 -1 24 -20 94
-24 94 -4 0 9 2 9 9 -1 11 -18 57 -11 53 7 -2 11 0 12 10 4 9 -8 55 -8 153 -2
77 5 167 9 199 8 32 0 62 3 65 8 8 11 246 41 421 53 135 9 420 43 495 60 22 5
83 12 135 15 52 4 127 15 165 25 39 10 90 21 115 24 128 14 172 34 210 93 7
11 13 14 16 7 18 -41 32 -49 66 -37 18 6 72 19 120 29 l86 16 -5 34 c-4 21 -2
34 5 34 23 0 62 -24 62 -38 0 -11 9 -13 38 -9 55 8 130 31 144 45 7 7 27 12
45 12 19 0 60 11 93 25 33 14 71 25 85 25 14 0 25 4 25 9 0 5 29 14 65 21 36
7 68 16 71 21 10 17 89 50 189 81 55 16 104 33 110 38 5 4 33 14 60 23 103 32
191 66 235 91 25 14 53 26 63 26 9 0 17 6 17 14 0 8 33 24 83 39 45 15 107 42
137 61 30 19 72 37 93 41 20 4 37 11 37 16 0 10 93 59 113 59 8 0 21 7 28 16
8 9 47 32 88 51 41 18 81 42 88 53 8 11 24 20 36 20 27 0 215 84 231 103 15
18 140 97 153 97 6 0 13 4 15 9 2 5 28 21 58 36 30 15 81 45 113 66 32 22 62
39 67 39 5 0 33 23 63 50 30 28 61 50 69 50 7 0 38 25 68 56 30 31 80 72 110
92 30 19 85 66 121 104 37 37 73 68 82 68 8 0 17 12 20 28 3 15 15 37 26 48
11 12 18 24 16 26 -2 2 5 4 16 5 28 2 49 21 49 44 0 10 27 42 61 71 34 29 70
72 81 96 11 23 26 42 32 42 7 0 18 11 24 24 9 20 8 25 -4 30 -13 5 -12 11 7
37 15 21 25 27 32 20 7 -7 24 11 57 62 26 39 68 97 94 127 26 30 61 82 77 115
15 34 42 76 59 95 16 18 30 41 30 51 0 10 3 19 8 21 7 3 67 121 141 281 23 48
41 99 41 111 0 13 8 34 19 47 10 13 24 42 31 64 7 22 19 54 27 72 7 17 13 36
13 43 0 6 13 46 29 88 17 42 33 98 36 125 3 26 10 47 14 47 4 0 8 6 8 13 0 6
17 93 36 192 97 479 115 657 119 1155 2 332 -5 603 -22 768 -7 68 -10 138 -7
155 2 18 -2 50 -10 72 -7 21 -20 83 -28 135 -14 90 -27 140 -120 445 -50 166
-95 287 -127 340 -6 11 -22 43 -36 70 -14 28 -51 93 -83 146 -33 53 -59 102
-59 109 0 30 -101 218 -134 249 -20 19 -36 44 -36 55 0 38 -40 87 -198 247
-86 87 -183 185 -215 218 -31 34 -81 73 -109 87 -36 18 -90 65 -171 150 -65
68 -135 133 -155 145 -20 12 -59 41 -87 64 -27 22 -79 61 -115 85 -36 23 -76
51 -89 62 -13 10 -31 18 -40 18 -9 0 -58 38 -110 85 -52 47 -104 88 -115 91
-12 4 -57 28 -101 54 -44 26 -92 50 -107 54 -18 4 -28 13 -28 24 0 19 -56 46
-73 35 -6 -4 -7 -1 -2 7 6 10 4 12 -9 7 -10 -4 -15 -3 -11 3 3 6 1 11 -4 11
-20 3 -26 5 -58 22 -18 10 -33 21 -33 25 0 5 -17 14 -37 21 -21 8 -58 27 -84
43 -26 16 -67 35 -92 44 -25 8 -53 24 -63 35 -10 11 -30 19 -50 19 -20 0 -73
20 -131 50 -102 51 -273 132 -308 145 -105 40 -242 85 -257 85 -10 0 -18 5
-18 11 0 6 -9 9 -20 6 -11 -3 -23 -1 -26 4 -3 5 -10 7 -15 4 -5 -4 -9 -1 -9 5
0 7 -7 9 -16 6 -8 -3 -12 -2 -9 3 3 6 -7 9 -22 9 -35 -1 -153 41 -153 54 0 6
-7 8 -15 4 -8 -3 -15 -2 -15 3 0 5 -10 9 -22 9 -13 0 -57 12 -98 27 -172 60
-199 67 -288 72 -56 4 -88 9 -80 14 7 5 10 9 7 9 -3 0 -57 7 -120 16 -196 28
-212 25 -242 -47 l-14 -34 -13 25 c-8 14 -14 38 -14 54 -1 27 -6 31 -70 52
-89 30 -254 47 -277 28 -8 -8 -22 -14 -30 -13 -8 0 -3 5 11 11 l25 11 -35 9
c-19 5 -75 9 -125 10 -49 1 -79 4 -65 8 35 9 -75 20 -204 20 -56 0 -117 4
-136 9 -19 5 -65 12 -102 15 -67 6 -68 6 -68 -18 0 -30 -20 -29 -54 3 l-25 24
-343 2 c-189 1 -354 4 -368 7 -14 2 -69 3 -122 1z m70 -43 c-7 -11 -19 -22
-28 -25 -8 -4 -4 5 9 19 29 31 36 33 19 6z m-55 -7 c-7 -2 -19 -2 -25 0 -7 3
-2 5 12 5 14 0 19 -2 13 -5z m990 0 c-7 -2 -19 -2 -25 0 -7 3 -2 5 12 5 14 0
19 -2 13 -5z m205 -10 c-10 -2 -26 -2 -35 0 -10 3 -2 5 17 5 19 0 27 -2 18 -5z
m-1225 -10 c-7 -2 -19 -2 -25 0 -7 3 -2 5 12 5 14 0 19 -2 13 -5z m1534 -9
c-3 -3 -12 -4 -19 -1 -8 3 -5 6 6 6 11 1 17 -2 13 -5z m-1507 -7 c0 -2 -10
-12 -22 -23 l-23 -19 19 23 c18 21 26 27 26 19z m1547 -3 c-3 -3 -12 -4 -19
-1 -8 3 -5 6 6 6 11 1 17 -2 13 -5z m-1617 -65 l0 -40 163 1 c89 1 169 -1 177
-4 8 -3 51 -8 95 -11 44 -3 112 -8 150 -11 39 -2 124 -7 190 -9 157 -6 652
-74 700 -96 26 -12 204 -16 230 -6 13 6 12 4 -3 -6 -23 -13 -23 -13 15 -25 52
-15 123 -13 130 4 3 8 10 14 15 14 6 0 5 -6 -2 -15 -10 -12 -7 -17 16 -26 16
-6 43 -12 59 -15 25 -4 26 -3 10 5 -19 9 -19 10 4 10 13 1 29 -6 36 -15 8 -11
29 -17 68 -18 31 0 57 -5 57 -9 0 -5 9 -5 20 -2 11 3 20 2 20 -3 0 -5 15 -7
33 -6 17 2 23 1 13 -3 -34 -9 37 -32 98 -32 65 1 116 -9 116 -22 0 -6 4 -8 9
-5 12 8 133 -36 147 -52 12 -16 100 -35 125 -27 9 3 52 -5 95 -19 100 -31 172
-46 232 -47 35 -2 39 -3 17 -7 -26 -4 -20 -7 45 -27 41 -13 122 -41 180 -63
58 -22 133 -48 167 -57 38 -11 60 -22 56 -28 -4 -6 0 -8 10 -4 20 7 49 -2 42
-13 -7 -11 24 -22 37 -13 6 3 8 2 5 -4 -7 -11 42 -38 51 -28 3 3 -1 5 -8 5 -7
0 -11 2 -8 5 10 10 300 -129 343 -165 6 -5 35 -18 65 -29 56 -21 512 -271 585
-321 22 -15 53 -30 69 -34 17 -4 45 -21 63 -37 19 -16 44 -30 56 -31 12 0 27
-2 32 -3 21 -4 80 -42 120 -77 23 -21 49 -38 57 -38 8 0 29 -16 48 -35 19 -19
38 -35 43 -35 38 0 435 -304 464 -354 4 -8 33 -34 63 -58 30 -23 50 -36 46
-28 -5 8 6 -1 23 -20 17 -19 38 -47 46 -61 18 -33 103 -105 130 -111 16 -3 20
-11 18 -43 -2 -31 3 -47 26 -75 15 -19 38 -54 50 -77 11 -23 27 -46 34 -50 7
-4 27 -33 43 -63 17 -30 35 -64 41 -75 7 -11 14 -32 17 -46 3 -14 17 -37 30
-52 33 -36 70 -109 92 -182 10 -33 42 -108 71 -167 30 -59 56 -123 58 -143 3
-20 9 -45 15 -55 5 -10 24 -58 41 -107 18 -48 36 -93 40 -99 5 -5 6 -26 3 -45
-4 -24 -1 -40 9 -50 27 -28 57 -133 65 -237 6 -70 14 -108 25 -120 12 -13 19
-53 27 -142 5 -69 14 -159 20 -200 14 -112 13 -677 -2 -682 -7 -3 -13 -67 -16
-208 -4 -153 -8 -208 -18 -218 -9 -9 -14 -37 -14 -81 0 -37 -4 -71 -9 -76 -12
-13 -31 -150 -31 -224 0 -32 -7 -78 -16 -102 -8 -24 -33 -115 -54 -201 -23
-91 -48 -170 -60 -186 -11 -15 -25 -57 -31 -92 -10 -65 -119 -351 -144 -380
-7 -8 -22 -46 -33 -85 -48 -161 -67 -200 -128 -263 -12 -12 -25 -35 -29 -49
-3 -15 -17 -40 -31 -56 -13 -16 -24 -32 -24 -37 0 -4 -8 -25 -17 -46 -9 -22
-16 -42 -15 -46 1 -5 -2 -8 -7 -8 -8 0 -69 -87 -80 -115 -5 -13 -54 -55 -64
-55 -4 0 -11 -9 -15 -19 -4 -11 -18 -33 -32 -50 -50 -60 -358 -367 -414 -414
-33 -26 -71 -67 -86 -91 -19 -29 -37 -45 -56 -49 -16 -4 -52 -28 -80 -55 -60
-58 -65 -57 -123 22 l-40 53 -97 7 c-83 6 -99 5 -106 -8 -5 -9 -15 -16 -22
-16 -14 0 -106 -156 -106 -180 0 -8 17 -34 38 -57 l39 -42 -66 -68 c-41 -41
-95 -83 -141 -109 -41 -23 -128 -71 -192 -108 -65 -36 -126 -66 -136 -66 -10
0 -44 -15 -75 -34 -32 -19 -55 -30 -51 -25 3 6 -11 3 -33 -6 -21 -9 -44 -19
-50 -22 -7 -3 -10 -9 -7 -14 3 -5 -1 -9 -8 -9 -21 0 -135 -57 -145 -72 -8 -13
-72 -45 -103 -50 -8 -2 -21 -10 -28 -18 -9 -10 -11 -10 -6 -1 5 10 -1 12 -27
6 -40 -9 -89 -32 -89 -43 0 -4 -15 -12 -32 -19 -108 -38 -184 -68 -188 -74 -8
-11 -258 -100 -325 -116 -79 -18 -155 -45 -155 -55 0 -4 -11 -8 -24 -8 -14 0
-28 -4 -31 -10 -3 -5 -16 -10 -28 -9 -20 1 -20 2 3 9 29 9 6 13 -27 4 -13 -4
-20 -11 -16 -17 4 -6 -2 -8 -15 -5 -12 4 -24 3 -27 -1 -2 -4 -30 -14 -62 -21
-32 -7 -83 -19 -113 -26 -30 -8 -63 -14 -73 -14 -10 0 -16 -3 -13 -8 2 -4 -14
-6 -35 -4 -26 3 -46 -1 -57 -10 -19 -17 -117 -42 -202 -53 -30 -4 -79 -19
-109 -32 -41 -20 -62 -24 -96 -20 -30 4 -61 1 -97 -12 -34 -11 -87 -19 -149
-20 -117 -2 -164 -10 -303 -51 -71 -21 -120 -30 -139 -26 -20 4 -33 1 -41 -9
-8 -11 -38 -15 -126 -16 -63 -1 -119 -4 -125 -7 -5 -3 -63 -7 -130 -9 -66 -2
-167 -8 -225 -14 -58 -5 -132 -9 -164 -9 -39 1 -62 -3 -67 -12 -18 -28 -842
-26 -859 2 -6 9 -32 11 -92 8 -68 -3 -91 -9 -117 -27 l-33 -23 -34 33 c-31 30
-42 34 -92 35 -31 1 -77 4 -102 7 -25 3 -88 9 -140 13 -59 4 -86 10 -70 14 44
11 4 21 -78 20 -43 -1 -106 6 -141 15 -36 9 -94 18 -130 19 -36 2 -102 11
-146 19 -44 9 -107 21 -140 27 -33 6 -81 18 -106 26 -26 8 -69 14 -95 14 -27
0 -82 9 -123 20 -41 11 -83 20 -93 20 -11 0 -59 13 -107 30 -49 16 -135 41
-192 56 -57 14 -122 37 -145 50 -22 13 -50 24 -61 24 -11 0 -93 25 -182 55
-89 30 -170 55 -179 56 -14 0 -14 2 2 8 17 6 11 12 -35 35 -30 14 -69 28 -86
30 -16 2 -53 16 -81 30 -52 26 -79 37 -220 86 -46 16 -104 44 -130 63 -53 39
-126 73 -192 91 -25 6 -74 32 -109 56 -80 56 -70 51 -173 99 -49 22 -88 45
-88 51 0 5 -8 10 -18 10 -11 0 -27 9 -37 19 -9 11 -34 28 -54 39 -119 61 -209
114 -307 178 -63 42 -129 77 -154 83 -31 7 -57 24 -96 62 -30 30 -54 57 -54
62 0 5 -20 33 -45 61 -25 29 -45 56 -45 59 0 4 14 14 31 22 34 18 35 42 4 59
-37 21 -50 65 -18 62 23 -1 28 28 9 47 -22 22 -104 30 -171 18 l-58 -11 -54
43 c-30 23 -69 51 -86 63 -51 34 -163 138 -226 212 -63 73 -126 132 -141 132
-6 0 -10 5 -10 11 0 6 -15 36 -34 67 -19 32 -37 69 -40 84 -5 24 -3 28 21 34
16 5 74 -1 138 -14 60 -12 160 -24 220 -27 61 -3 124 -8 140 -11 17 -2 80 -7
140 -10 61 -2 139 -11 175 -19 88 -20 347 -35 621 -35 l227 0 5 30 c6 25 10
29 37 27 16 -1 30 -5 30 -9 0 -4 34 -14 76 -24 69 -15 126 -16 568 -10 270 4
601 7 736 6 135 0 277 5 315 10 39 6 259 15 490 21 564 13 566 13 601 50 33
35 47 36 66 7 15 -22 33 -25 133 -20 17 0 122 1 235 2 127 1 245 7 310 16 59
9 126 13 153 9 26 -3 382 -5 790 -5 408 1 839 1 957 0 118 0 862 -1 1653 0
1080 0 1437 -2 1437 -11 0 -15 122 -7 127 8 3 7 17 8 46 1 23 -5 54 -7 69 -4
15 3 30 2 32 -3 8 -12 254 -13 292 -2 18 5 49 5 75 0 65 -13 322 -20 338 -10
10 6 18 5 25 -4 8 -10 43 -14 131 -15 166 -3 160 -4 200 31 31 28 35 36 30 63
-16 77 -29 106 -46 106 -9 0 -19 5 -21 11 -7 22 -525 29 -1793 27 -819 -2
-1253 -6 -1257 -13 -5 -6 -8 -6 -8 1 0 7 -151 11 -507 13 -283 1 -510 6 -513
11 -9 14 -500 16 -532 2 -20 -8 -232 -13 -745 -18 -674 -5 -721 -7 -760 -25
-38 -17 -45 -17 -76 -4 -25 10 -82 14 -220 14 -103 0 -187 -4 -187 -8 0 -4
-172 -11 -382 -15 -210 -4 -388 -11 -397 -15 -9 -5 -290 -11 -625 -15 -455 -5
-614 -10 -624 -19 -11 -9 -182 -14 -681 -19 -427 -4 -677 -11 -695 -17 -38
-15 -86 -14 -136 4 -24 9 -77 15 -124 15 -44 0 -148 9 -231 20 -82 11 -165 20
-182 20 -18 0 -33 4 -33 8 0 4 -55 9 -122 10 -68 2 -131 5 -140 8 -10 3 -26
-4 -38 -16 -21 -21 -22 -21 -68 -4 -49 18 -105 25 -352 44 -80 6 -174 15 -210
21 -36 6 -80 13 -98 16 -50 8 -222 176 -222 217 0 16 -27 104 -61 195 -34 91
-65 191 -69 221 -7 51 -15 76 -58 200 -29 85 -91 335 -92 371 0 19 -6 55 -14
80 -8 24 -20 89 -26 143 -14 118 -23 146 -50 153 -11 3 -20 6 -20 7 0 0 7 26
15 56 8 30 15 94 15 141 l0 86 57 37 c53 34 68 38 243 66 102 16 235 40 296
54 60 13 172 30 249 36 77 6 156 18 175 26 23 9 109 17 250 24 215 10 438 25
518 36 39 5 41 7 31 26 -10 18 -9 34 3 90 2 10 16 31 31 46 15 15 27 37 28 48
0 17 1 17 7 2 6 -15 14 -13 62 18 l55 35 -50 -7 c-27 -4 -53 -12 -57 -18 -5
-7 -8 -6 -8 4 0 20 246 263 286 283 17 9 64 43 105 76 41 34 78 61 82 61 5 0
5 5 2 10 -3 6 2 10 12 10 10 0 34 11 53 24 20 13 44 25 54 27 17 4 16 6 -4 32
-24 30 -130 87 -162 87 -10 0 -51 9 -91 20 -132 37 -248 51 -429 50 -95 -1
-184 -4 -198 -8 -25 -6 -25 -6 5 -13 21 -5 9 -7 -40 -8 -91 -1 -241 -39 -335
-85 -41 -20 -80 -36 -87 -36 -20 0 -15 -17 7 -23 12 -3 20 -14 20 -25 0 -12
18 -34 42 -54 l42 -33 152 -3 c145 -4 153 -3 174 18 17 17 34 22 83 22 78 1
131 24 214 89 l64 51 97 -8 c53 -5 107 -9 119 -9 12 1 19 -4 16 -9 -4 -5 1 -7
10 -3 9 3 19 2 22 -2 2 -5 22 -12 42 -16 51 -9 67 -23 51 -42 -9 -11 -9 -17 3
-24 10 -7 6 -8 -13 -3 -21 4 -33 0 -53 -20 -14 -14 -28 -26 -31 -26 -16 0
-129 -87 -185 -142 -68 -67 -223 -283 -214 -298 5 -8 -12 -25 -27 -25 -9 0
-58 -66 -58 -77 0 -5 12 -6 28 -3 22 4 24 4 7 -4 -11 -5 -33 -10 -50 -10 -16
-1 -43 -10 -60 -21 -27 -18 -47 -20 -228 -20 -181 0 -201 -2 -239 -21 -31 -16
-63 -22 -132 -24 -50 -1 -134 -10 -187 -19 -86 -15 -98 -15 -125 -1 -16 8 -24
15 -18 15 21 0 23 28 4 45 -17 15 -19 14 -40 -19 -12 -20 -19 -40 -15 -46 3
-5 -1 -10 -9 -10 -9 0 -16 -7 -16 -15 0 -8 -3 -15 -7 -15 -100 -1 -424 -41
-417 -51 6 -11 -5 -11 -71 0 -27 5 -54 6 -60 2 -5 -3 6 -9 25 -12 24 -4 8 -7
-49 -8 l-84 -1 8 63 c5 34 9 98 10 143 1 44 10 110 20 147 14 51 16 73 7 91
-7 16 -7 48 -2 97 5 41 13 139 19 219 11 171 41 352 81 505 16 61 34 133 39
160 14 77 46 188 65 226 9 19 20 54 23 79 9 61 46 154 77 191 14 17 26 37 26
45 0 9 12 36 27 61 14 25 30 68 34 96 7 43 16 57 59 97 29 27 50 55 50 67 0
24 63 121 112 173 18 19 58 74 88 121 98 153 168 240 265 328 33 30 76 75 95
101 19 27 62 70 95 98 33 27 75 66 94 86 33 34 34 37 18 54 -23 25 -22 27 17
50 28 17 36 18 47 6 12 -11 25 -4 82 47 38 32 80 66 95 73 15 8 40 28 55 44
24 25 34 29 65 25 36 -5 38 -3 59 41 13 25 28 46 33 46 6 0 9 4 6 9 -3 5 2 15
12 22 15 13 16 12 3 -3 -19 -25 2 -23 24 2 10 11 27 22 39 26 11 4 39 19 61
34 22 15 48 29 58 33 9 4 17 11 17 17 0 5 5 10 11 10 19 0 174 77 188 94 7 9
19 16 25 16 6 0 38 13 71 29 203 98 299 141 314 141 10 0 38 13 62 30 24 16
50 30 57 30 8 0 25 9 39 20 14 11 33 20 42 20 9 0 34 14 55 30 22 17 46 30 53
30 7 0 13 5 13 10 0 6 15 10 33 10 18 0 41 6 52 13 11 8 52 22 90 32 39 10 90
28 115 40 25 12 63 28 85 35 22 7 65 25 95 40 30 14 82 34 115 44 33 10 72 25
87 32 14 8 33 14 42 14 9 0 24 4 34 9 9 5 58 22 107 37 50 15 104 38 121 51
37 27 44 28 44 7 0 -13 6 -15 28 -9 15 3 28 10 29 13 2 4 26 5 54 3 34 -2 49
0 45 7 -4 6 1 11 11 10 10 0 45 7 78 16 33 9 107 21 165 27 58 5 129 19 159
30 29 11 72 21 95 23 22 1 77 13 120 24 44 12 95 22 113 22 32 0 33 1 33 40
l0 41 59 -33 59 -33 52 19 c38 14 64 17 102 12 48 -7 123 8 114 22 -2 4 19 6
47 4 29 -2 83 3 122 11 38 8 110 15 160 16 102 2 241 19 269 33 13 7 16 7 12
-1 -5 -8 12 -11 53 -11 32 0 61 4 63 9 2 5 125 13 278 17 178 4 280 11 289 18
11 8 13 8 7 -1 -5 -10 3 -13 29 -13 l37 0 -3 44 c-2 24 -1 42 4 39 4 -2 7 -22
7 -44z m262 13 c11 -14 10 -15 -7 -8 -11 4 -32 10 -47 13 -27 5 -34 14 -22 26
9 8 61 -12 76 -31z m-1162 3 c-7 -8 -9 -15 -4 -15 11 0 -18 -20 -28 -20 -5 0
2 11 14 25 23 27 39 35 18 10z m850 -5 c-6 -11 -13 -20 -16 -20 -2 0 0 9 6 20
6 11 13 20 16 20 2 0 0 -9 -6 -20z m540 16 c0 -2 -8 -10 -17 -17 -16 -13 -17
-12 -4 4 13 16 21 21 21 13z m-1443 -48 c-3 -8 -6 -5 -6 6 -1 11 2 17 5 13 3
-3 4 -12 1 -19z m233 -12 c0 -2 -7 -7 -16 -10 -8 -3 -12 -2 -9 4 6 10 25 14
25 6z m2987 -38 c-3 -8 -6 -5 -6 6 -1 11 2 17 5 13 3 -3 4 -12 1 -19z m103 -2
c0 -2 -7 -7 -16 -10 -8 -3 -12 -2 -9 4 6 10 25 14 25 6z m-97 -23 c-7 -2 -19
-2 -25 0 -7 3 -2 5 12 5 14 0 19 -2 13 -5z m52 -3 c-3 -5 -14 -10 -23 -9 -14
0 -13 2 3 9 27 11 27 11 20 0z m-4990 -150 c-9 -16 -20 -30 -26 -30 -6 0 -3 7
5 16 9 8 14 19 11 24 -4 7 4 14 23 19 1 1 -4 -12 -13 -29z m4702 4 c-3 -3 -12
-4 -19 -1 -8 3 -5 6 6 6 11 1 17 -2 13 -5z m-4530 -36 c-3 -7 -5 -2 -5 12 0
14 2 19 5 13 2 -7 2 -19 0 -25z m-32 -19 c-4 -5 -12 -9 -18 -8 -9 0 -8 2 1 6
6 2 9 10 6 15 -4 7 -2 8 5 4 6 -4 9 -12 6 -17z m4801 5 c18 -14 18 -14 -6 -3
-31 14 -36 19 -24 19 6 0 19 -7 30 -16z m-5308 -36 c10 -12 10 -18 1 -24 -7
-4 -9 -3 -5 4 3 6 2 13 -4 17 -5 3 -10 11 -10 17 0 6 1 9 3 7 1 -2 8 -11 15
-21z m379 -14 c-3 -3 -12 -4 -19 -1 -8 3 -5 6 6 6 11 1 17 -2 13 -5z m-547
-79 c0 -8 -4 -15 -10 -15 -5 0 -7 7 -4 15 4 8 8 15 10 15 2 0 4 -7 4 -15z
m5877 9 c-3 -3 -12 -4 -19 -1 -8 3 -5 6 6 6 11 1 17 -2 13 -5z m-5693 -22 c3
-5 -1 -9 -9 -9 -8 0 -12 4 -9 9 3 4 7 8 9 8 2 0 6 -4 9 -8z m-199 -22 c3 -5 1
-10 -4 -10 -6 0 -11 5 -11 10 0 6 2 10 4 10 3 0 8 -4 11 -10z m-1295 -444 c0
-2 -8 -10 -17 -17 -16 -13 -17 -12 -4 4 13 16 21 21 21 13z m-180 -217 c0 -5
-45 -29 -55 -29 -3 0 3 16 12 35 15 31 18 33 29 17 8 -9 14 -20 14 -23z m9357
-54 c0 -11 -4 -12 -14 -4 -7 6 -13 13 -13 15 0 2 6 4 13 4 8 0 14 -7 14 -15z
m53 -5 c0 -5 -2 -10 -4 -10 -3 0 -8 5 -11 10 -3 6 -1 10 4 10 6 0 11 -4 11
-10z m273 -57 c-7 -2 -19 -2 -25 0 -7 3 -2 5 12 5 14 0 19 -2 13 -5z m-16 -39
c-3 -3 -12 -4 -19 -1 -8 3 -5 6 6 6 11 1 17 -2 13 -5z m-10126 -167 c-10 -9
-11 -8 -5 6 3 10 9 15 12 12 3 -3 0 -11 -7 -18z m-84 -19 c-3 -7 -5 -2 -5 12
0 14 2 19 5 13 2 -7 2 -19 0 -25z m10893 -388 c0 -31 -7 -34 -46 -24 -16 4
-20 11 -16 30 3 19 11 24 33 24 26 0 29 -4 29 -30z m-7 -80 c3 -11 1 -18 -4
-14 -5 3 -9 12 -9 20 0 20 7 17 13 -6z m621 -716 c5 -14 4 -15 -9 -4 -17 14
-19 20 -6 20 5 0 12 -7 15 -16z m183 -826 c-3 -8 -6 -5 -6 6 -1 11 2 17 5 13
3 -3 4 -12 1 -19z m-11517 -510 c0 -13 -23 -5 -28 10 -2 7 2 10 12 6 9 -3 16
-11 16 -16z m870 -21 c12 -4 12 -6 -2 -6 -9 -1 -21 6 -25 14 -6 10 -13 11 -23
5 -13 -9 -13 -11 0 -20 13 -8 12 -10 -2 -10 -10 0 -18 7 -18 15 0 21 33 37 45
21 6 -7 17 -15 25 -19z m-1193 -33 c-3 -3 -12 -4 -19 -1 -8 3 -5 6 6 6 11 1
17 -2 13 -5z m-1288 -1303 c10 -6 10 -10 1 -16 -7 -4 -19 0 -28 9 -14 13 -14
16 -2 16 8 0 21 -4 29 -9z m12962 -1317 c-9 -38 -9 -38 -10 -7 -1 33 10 74 16
57 2 -6 -1 -28 -6 -50z m-3958 -301 c-7 -2 -21 -2 -30 0 -10 3 -4 5 12 5 17 0
24 -2 18 -5z m270 0 c-7 -2 -21 -2 -30 0 -10 3 -4 5 12 5 17 0 24 -2 18 -5z
m-7797 -130 c17 -18 31 -24 49 -21 32 7 32 4 -6 -20 l-31 -19 -50 24 -51 24
29 30 c16 17 30 25 32 19 2 -6 15 -23 28 -37z m4189 11 c7 -42 5 -47 -28 -42
-25 3 -25 3 -10 41 19 47 29 47 38 1z m-5035 23 c0 -2 -9 -12 -20 -22 -19 -17
-20 -17 -20 -1 0 9 4 15 9 11 5 -3 12 -1 16 5 6 10 15 14 15 7z m9438 -33 c-7
-15 -14 -21 -16 -15 -2 7 2 18 8 26 18 22 21 18 8 -11z m-5298 3 c0 -21 -12
-28 -27 -16 -19 16 -16 29 7 29 11 0 20 -6 20 -13z m1490 3 c-8 -5 -24 -10
-35 -10 -17 0 -17 2 -5 10 8 5 24 10 35 10 17 0 17 -2 5 -10z m-1030 -25 c0
-32 -11 -41 -45 -37 -43 5 -52 18 -31 41 18 20 76 17 76 -4z m-3910 5 c13 -9
13 -10 0 -10 -8 0 -22 5 -30 10 -13 9 -13 10 0 10 8 0 22 -5 30 -10z m10738
-16 c-7 -15 -14 -21 -16 -15 -2 7 2 18 8 26 18 22 21 18 8 -11z m676 -14 c-15
-22 -29 -38 -31 -36 -5 5 46 76 53 76 3 0 -8 -18 -22 -40z m-9997 -37 c-3 -10
-5 -4 -5 12 0 17 2 24 5 18 2 -7 2 -21 0 -30z m70 15 c-3 -8 -6 -5 -6 6 -1 11
2 17 5 13 3 -3 4 -12 1 -19z m5696 15 c-7 -2 -21 -2 -30 0 -10 3 -4 5 12 5 17
0 24 -2 18 -5z m-5312 -27 c-10 -12 -8 -15 11 -19 17 -3 13 -5 -11 -6 -33 -1
-34 -1 -16 19 21 23 34 28 16 6z m-907 -12 c5 -14 4 -15 -9 -4 -17 14 -19 20
-6 20 5 0 12 -7 15 -16z m671 -6 c6 -4 2 -8 -7 -8 -10 0 -18 7 -18 17 0 9 3
12 8 7 4 -5 12 -12 17 -16z m-637 -35 c-3 -14 -5 -14 -18 2 -9 11 -10 16 -2
11 8 -5 12 0 13 16 1 17 3 18 6 6 2 -10 3 -25 1 -35z m695 40 c-7 -2 -19 -2
-25 0 -7 3 -2 5 12 5 14 0 19 -2 13 -5z m350 -10 c-7 -2 -19 -2 -25 0 -7 3 -2
5 12 5 14 0 19 -2 13 -5z m-2563 -268 c13 -14 21 -25 18 -25 -2 0 -15 11 -28
25 -13 14 -21 25 -18 25 2 0 15 -11 28 -25z m11653 -77 c-4 -7 -8 -16 -8 -20
0 -14 -15 -21 -15 -7 0 8 5 20 12 27 16 16 21 15 11 0z m-11572 -25 c13 -16
12 -17 -3 -4 -17 13 -22 21 -14 21 2 0 10 -8 17 -17z m11523 -54 c-4 -7 -44
-19 -44 -14 0 2 5 15 12 29 10 24 12 24 24 8 7 -9 10 -20 8 -23z m-29 -119 c3
-5 1 -10 -4 -10 -6 0 -11 5 -11 10 0 6 2 10 4 10 3 0 8 -4 11 -10z m-10750
-70 c10 -11 16 -20 13 -20 -3 0 -13 9 -23 20 -10 11 -16 20 -13 20 3 0 13 -9
23 -20z m-65 -80 c0 -5 -5 -10 -11 -10 -5 0 -7 5 -4 10 3 6 8 10 11 10 2 0 4
-4 4 -10z m9460 -770 c0 -11 -4 -20 -10 -20 -5 0 -6 8 -3 17 5 12 2 15 -10 10
-9 -3 -17 -2 -17 3 0 6 9 10 20 10 13 0 20 -7 20 -20z m-745 -270 c-3 -5 -12
-10 -18 -10 -7 0 -6 4 3 10 19 12 23 12 15 0z m-1265 -423 c0 -2 -10 -12 -22
-23 l-23 -19 19 23 c18 21 26 27 26 19z m-3920 -297 c0 -5 -10 -10 -22 -9 -22
0 -22 1 -3 9 11 5 21 9 23 9 1 1 2 -3 2 -9z m1578 -7 c-10 -2 -28 -2 -40 0
-13 2 -5 4 17 4 22 1 32 -1 23 -4z m124 -18 c3 -13 1 -22 -3 -19 -9 5 -13 44
-5 44 2 0 6 -11 8 -25z m-1784 8 c-10 -2 -28 -2 -40 0 -13 2 -5 4 17 4 22 1
32 -1 23 -4z m1756 -2 c3 -4 -6 -6 -19 -3 -14 2 -25 6 -25 8 0 8 39 4 44 -5z
m180 -67 c3 -8 2 -12 -4 -9 -6 3 -10 10 -10 16 0 14 7 11 14 -7z m-187 -66
c-3 -8 -6 -5 -6 6 -1 11 2 17 5 13 3 -3 4 -12 1 -19z m178 13 c3 -5 1 -12 -5
-16 -5 -3 -10 1 -10 9 0 18 6 21 15 7z m-291 -10 c3 -5 -1 -11 -9 -14 -9 -4
-12 -1 -8 9 6 16 10 17 17 5z m-361 -38 c-7 -2 -21 -2 -30 0 -10 3 -4 5 12 5
17 0 24 -2 18 -5z"/>
<path d="M7660 11645 c-8 -2 -50 -7 -92 -10 -76 -7 -79 -8 -210 -94 -128 -84
-135 -91 -194 -177 -52 -77 -65 -106 -93 -209 -33 -119 -33 -122 -28 -280 7
-190 27 -286 85 -400 100 -200 295 -390 440 -429 112 -31 278 -89 337 -119 69
-34 197 -157 240 -231 26 -44 27 -52 21 -119 -4 -40 -11 -115 -15 -167 -7 -83
-14 -107 -53 -190 -44 -93 -46 -96 -119 -142 -41 -26 -107 -76 -147 -112 -40
-36 -84 -69 -98 -72 -61 -15 -328 33 -552 100 -42 13 -79 22 -81 20 -6 -5 19
-192 36 -269 24 -108 50 -163 81 -169 15 -3 142 -24 282 -46 225 -35 275 -40
430 -40 134 0 203 5 290 21 104 18 122 25 185 67 80 54 294 261 319 310 17 33
50 186 81 370 l17 102 -36 113 c-19 61 -49 158 -66 214 l-32 102 -104 88 c-94
80 -118 94 -261 158 -87 39 -207 98 -268 132 -60 33 -144 77 -185 98 -41 21
-105 57 -142 81 -59 38 -68 47 -68 74 0 17 -11 47 -24 68 -34 50 -66 173 -66
248 0 46 -5 68 -20 87 -19 24 -19 26 -2 31 10 3 26 21 36 38 92 160 121 194
244 280 168 120 180 123 439 120 l211 -2 6 28 c3 15 8 50 11 77 4 28 9 58 12
68 3 11 -1 17 -12 17 -9 0 -51 15 -93 34 -109 47 -252 87 -346 96 -45 5 -101
13 -126 18 -49 11 -246 23 -270 17z"/>
<path d="M6546 11528 c-28 -28 -35 -44 -44 -110 -7 -48 -8 -86 -3 -101 16 -43
22 -200 12 -317 -10 -116 -2 -424 20 -770 6 -91 15 -289 20 -440 5 -151 12
-301 15 -332 3 -31 1 -65 -4 -74 -9 -16 -12 -14 -31 17 -12 19 -58 117 -102
219 -45 102 -111 248 -147 325 -93 203 -195 430 -262 585 -32 74 -76 173 -97
220 -22 47 -48 109 -58 139 -11 35 -24 55 -36 58 -14 4 -17 9 -9 18 6 8 7 22
1 41 -5 16 -17 55 -26 88 -16 58 -17 58 -47 52 l-32 -6 22 23 c21 22 21 26 8
59 -24 57 -37 62 -77 28 -43 -37 -76 -39 -91 -5 -6 14 -16 24 -22 22 -10 -4
-97 -23 -192 -42 -14 -3 -24 -15 -27 -32 -8 -45 11 -1384 23 -1548 11 -164 19
-915 9 -909 -8 5 -19 -85 -19 -158 l0 -58 128 0 c117 1 253 18 269 34 14 14
15 435 2 981 -17 697 -17 752 0 845 12 66 15 72 24 50 28 -72 107 -236 245
-510 85 -167 165 -334 178 -370 13 -36 28 -74 33 -85 37 -82 118 -275 225
-531 68 -166 139 -327 157 -359 l32 -58 101 7 c55 3 105 11 111 17 6 6 10 89
10 222 -1 344 -23 1346 -34 1526 -6 91 -15 247 -21 346 -6 99 -15 227 -20 285
-5 58 -12 188 -16 290 -5 165 -8 193 -32 262 -29 84 -35 88 -124 88 -32 0 -47
-7 -72 -32z m-872 -489 c28 -13 25 -29 -5 -29 -10 0 -19 2 -19 4 0 2 -3 11 -6
20 -7 19 -3 20 30 5z m-214 -208 c0 -6 -4 -13 -10 -16 -5 -3 -10 1 -10 9 0 9
5 16 10 16 6 0 10 -4 10 -9z"/>
<path d="M8994 11343 c-14 -3 -26 -19 -37 -51 -15 -42 -16 -67 -7 -222 5 -96
23 -285 40 -420 16 -135 30 -270 30 -300 0 -30 7 -90 15 -133 8 -43 15 -106
15 -140 0 -34 7 -111 14 -172 22 -169 38 -430 31 -499 -4 -33 -2 -96 4 -140 6
-43 14 -174 17 -290 3 -116 11 -245 17 -286 l12 -74 55 -17 c43 -13 125 -18
365 -25 171 -5 372 -9 448 -9 75 0 137 -3 137 -6 0 -8 299 -20 325 -13 18 5
22 18 33 120 7 64 10 119 7 124 -6 9 -101 32 -200 49 -194 32 -397 75 -517
107 l-137 37 -16 51 c-9 28 -20 103 -26 166 -5 63 -16 153 -24 200 -24 150
-26 183 -15 279 6 52 13 97 15 100 4 3 428 -33 500 -43 12 -1 19 66 10 111 -3
18 -18 47 -33 65 -15 17 -25 32 -23 32 3 1 1 8 -5 17 -7 13 -19 15 -69 9 -57
-7 -61 -6 -83 21 -22 28 -68 42 -255 79 -40 8 -62 18 -72 33 -8 14 -18 80 -25
182 -6 88 -17 185 -23 215 -14 66 -12 51 -21 181 -8 105 -8 106 20 150 15 24
29 45 30 47 1 2 43 -9 94 -23 50 -14 134 -35 186 -45 52 -11 104 -26 117 -33
16 -10 53 -12 135 -9 l113 4 -8 46 c-4 26 -7 75 -6 109 l1 63 -49 30 c-67 41
-482 185 -654 227 -77 18 -204 49 -282 68 -139 34 -156 37 -199 28z m206 -728
c0 -2 -10 -9 -22 -15 -22 -11 -22 -10 -4 4 21 17 26 19 26 11z m523 -762 c3
-5 -6 -16 -19 -26 -24 -18 -24 -18 -24 8 0 18 5 25 19 25 11 0 22 -3 24 -7z
m-383 -637 c0 -2 -8 -10 -17 -17 -16 -13 -17 -12 -4 4 13 16 21 21 21 13z"/>
<path d="M4655 11175 c-190 -32 -421 -97 -580 -163 -38 -15 -124 -46 -190 -67
-68 -22 -129 -48 -141 -60 -30 -30 -39 -167 -30 -479 4 -133 7 -250 7 -261 -7
-427 -19 -1600 -16 -1603 2 -2 113 4 247 14 155 11 378 18 618 19 206 1 408 5
448 10 65 7 75 11 83 32 12 32 11 95 -2 207 l-12 93 -226 6 c-128 3 -266 13
-318 21 -50 9 -140 20 -199 25 -74 7 -112 14 -123 25 -14 14 -15 58 -12 374 1
196 4 358 4 359 1 1 117 23 257 49 140 26 257 49 259 51 7 5 21 197 16 213 -4
13 -23 14 -157 4 -84 -6 -199 -14 -255 -18 l-101 -7 -8 68 c-4 37 -8 196 -8
352 l-1 284 125 38 c69 21 224 71 345 112 l220 74 2 49 c1 27 3 58 3 69 1 11
-4 48 -11 83 -10 54 -14 62 -33 61 -11 -1 -106 -16 -211 -34z"/>
<path d="M3245 10809 c-99 -43 -238 -105 -309 -136 -70 -31 -181 -88 -245
-126 -64 -38 -162 -91 -218 -117 -134 -63 -188 -103 -214 -157 -23 -47 -20
-108 7 -150 l14 -23 53 33 c104 67 345 207 381 222 59 25 124 34 163 23 29 -8
34 -13 29 -31 -24 -92 -29 -215 -16 -411 15 -226 9 -454 -15 -631 -17 -131
-25 -159 -77 -290 -22 -55 -44 -114 -49 -130 -5 -17 -40 -62 -78 -101 -38 -40
-70 -76 -72 -82 -5 -13 -311 -34 -324 -21 -10 10 -87 11 -125 0 -21 -6 -27
-16 -36 -63 -6 -31 -16 -69 -21 -85 -10 -27 -8 -30 28 -51 55 -32 193 -73 272
-82 67 -8 73 -6 250 56 167 58 185 67 224 107 34 36 44 57 54 106 13 60 14 61
29 41 15 -20 17 -20 32 -3 9 10 52 83 96 163 71 128 82 155 95 233 9 49 23 99
31 112 9 14 16 46 16 73 0 27 7 71 15 98 8 27 15 89 15 139 0 50 9 153 20 230
11 77 22 203 25 280 6 175 24 489 31 532 4 26 14 38 54 60 42 24 53 36 76 91
25 58 26 67 14 105 -12 42 -27 67 -39 67 -3 -1 -87 -37 -186 -81z"/>
<path d="M10596 10673 c4 -50 12 -95 20 -103 7 -9 19 -31 27 -49 13 -31 13
-35 -4 -52 -24 -24 -24 -46 0 -85 19 -31 19 -32 -1 -51 -19 -20 -19 -22 -3
-132 9 -62 20 -197 24 -299 4 -112 12 -196 19 -209 8 -13 12 -69 12 -149 0
-69 7 -170 15 -223 8 -53 21 -260 29 -460 8 -200 18 -367 23 -371 14 -14 287
-29 295 -16 4 6 15 43 24 81 16 74 15 203 -6 455 -19 227 -41 880 -30 880 11
-1 70 -60 70 -71 0 -26 109 -260 147 -317 24 -34 106 -188 183 -341 76 -153
161 -312 188 -353 26 -41 68 -122 91 -179 24 -57 54 -125 67 -150 l23 -47 78
-4 c43 -3 83 -3 89 -1 23 8 59 1118 37 1145 -6 8 -14 110 -17 248 -6 205 -16
334 -31 405 -2 11 -21 29 -42 40 -21 11 -47 29 -58 40 -28 29 -65 51 -97 57
-23 4 -28 2 -29 -16 -1 -20 -2 -20 -6 -1 -3 11 -9 24 -14 29 -12 13 -12 -100
1 -143 5 -19 10 -108 11 -198 0 -90 4 -161 7 -159 4 2 7 -78 8 -177 0 -100 2
-202 3 -227 21 -355 21 -384 10 -443 -6 -34 -15 -66 -20 -71 -4 -5 -70 115
-145 267 -76 152 -142 273 -146 271 -4 -3 -8 11 -8 31 0 23 -25 94 -69 193
-111 253 -191 425 -205 442 -8 8 -17 31 -21 50 -4 19 -25 73 -46 119 -21 46
-39 91 -39 99 0 9 -8 24 -17 35 -10 10 -22 39 -28 64 -10 44 -13 48 -125 119
-127 82 -201 114 -260 114 l-40 0 6 -87z m1199 -712 c3 -5 2 -12 -3 -15 -5 -3
-9 1 -9 9 0 17 3 19 12 6z m212 -468 c-3 -10 -5 -4 -5 12 0 17 2 24 5 18 2 -7
2 -21 0 -30z m-10 -205 c-2 -18 -4 -6 -4 27 0 33 2 48 4 33 2 -15 2 -42 0 -60z"/>
<path d="M1750 9066 c-25 -7 -62 -21 -84 -30 -21 -9 -49 -16 -62 -16 -23 0
-24 -3 -24 -61 0 -57 1 -60 18 -48 15 12 15 12 -1 -8 -18 -20 -17 -21 12 -31
29 -10 30 -10 34 26 l4 37 1 -36 2 -35 73 -17 c141 -31 335 -15 436 38 31 15
41 47 21 60 -6 4 -8 21 -4 41 4 24 2 34 -6 34 -7 0 -10 -7 -6 -17 5 -14 2 -13
-11 3 -14 17 -47 27 -158 48 -156 29 -180 30 -245 12z m368 -120 c-7 -6 -10
-7 -5 -2 4 6 8 21 8 36 2 25 2 25 6 1 3 -13 -1 -29 -9 -35z m-198 40 c0 -2 -8
-10 -17 -17 -16 -13 -17 -12 -4 4 13 16 21 21 21 13z m-260 -20 c0 -2 -7 -7
-16 -10 -8 -3 -12 -2 -9 4 6 10 25 14 25 6z m327 -58 c-3 -8 -6 -5 -6 6 -1 11
2 17 5 13 3 -3 4 -12 1 -19z m-262 -28 c-3 -5 -12 -7 -20 -3 -21 7 -19 13 6
13 11 0 18 -4 14 -10z"/>
<path d="M12566 8790 c-21 -4 -42 -13 -46 -20 -4 -7 -15 -10 -24 -7 -9 4 -28
-4 -44 -18 -25 -21 -30 -32 -31 -75 0 -27 3 -50 8 -50 5 0 18 -3 28 -7 16 -6
17 -5 3 13 -9 11 -4 9 14 -6 26 -23 35 -25 129 -25 56 1 115 4 131 8 28 8 28
8 10 30 -14 15 -9 13 14 -6 19 -15 41 -27 50 -27 27 0 92 20 92 28 0 4 14 13
30 19 41 15 41 58 1 97 -29 28 -33 28 -111 24 -44 -3 -83 -1 -86 4 -3 4 -25 8
-50 8 -25 0 -53 4 -62 8 -9 5 -34 5 -56 2z"/>
<path d="M11570 8280 c-18 -5 -39 -14 -45 -22 -7 -9 -34 -12 -100 -10 l-90 2
-77 -56 c-65 -46 -89 -73 -147 -160 l-70 -104 25 -17 c22 -14 27 -14 38 -2 15
16 123 156 148 192 11 16 31 26 58 31 23 4 48 12 54 19 10 9 42 11 132 5 133
-8 150 -10 210 -32 23 -8 69 -16 101 -18 36 -2 59 -7 56 -13 -2 -7 57 -9 174
-7 187 3 243 15 243 51 0 17 -69 52 -107 55 -13 0 -23 6 -23 12 0 46 -188 85
-400 83 -80 -1 -161 -5 -180 -9z m150 -54 l25 -29 -27 19 c-15 10 -28 25 -28
33 0 8 1 12 3 10 1 -2 13 -17 27 -33z m345 -31 c22 -8 36 -14 30 -15 -5 0 1
-10 14 -20 13 -11 18 -20 13 -20 -6 0 -14 5 -17 10 -4 6 -27 21 -53 35 -53 27
-47 32 13 10z"/>
<path d="M1058 8183 c-19 -3 -30 -13 -37 -35 -17 -48 -14 -53 37 -71 58 -21
101 -22 108 -2 4 8 11 15 16 15 6 0 4 -7 -3 -16 -12 -15 -8 -16 51 -9 36 4 68
12 72 19 4 6 8 7 8 1 0 -5 11 8 24 30 l25 40 -22 12 c-12 6 -25 9 -29 7 -3 -2
-9 0 -13 6 -6 10 -178 12 -237 3z m264 -53 c-4 -3 -11 -9 -15 -15 -5 -6 -7 -3
-4 6 3 9 0 22 -6 29 -8 9 -5 8 10 -1 12 -7 19 -16 15 -19z"/>
<path d="M3590 8027 c-61 -25 -100 -48 -100 -59 0 -5 17 -8 38 -8 21 0 43 -5
50 -12 9 -9 15 -9 24 0 9 9 9 12 -2 12 -8 0 -2 7 14 15 19 10 44 14 70 11 23
-3 97 -8 166 -11 137 -5 181 -16 352 -87 88 -36 102 -46 134 -90 31 -44 38
-49 62 -43 14 3 40 18 58 33 53 46 68 56 114 81 25 13 50 29 55 35 11 12 18
14 75 26 22 5 27 8 13 9 -12 0 -26 8 -30 15 -7 12 -14 10 -40 -12 -37 -32
-149 -104 -179 -115 -17 -6 -38 4 -100 48 -81 59 -133 85 -166 85 -10 0 -38
10 -61 22 -65 33 -216 60 -362 64 -116 3 -136 1 -185 -19z"/>
<path d="M4968 8035 c-3 -3 -61 -13 -128 -20 -121 -15 -150 -24 -150 -51 0
-19 56 -18 145 2 39 8 135 21 214 28 188 16 253 8 348 -45 51 -28 84 -39 114
-39 41 0 41 0 27 23 -26 39 -102 79 -157 82 -28 2 -55 6 -60 9 -13 8 -345 18
-353 11z m189 -21 c-3 -3 -12 -4 -19 -1 -8 3 -5 6 6 6 11 1 17 -2 13 -5z m260
-27 c4 -7 0 -8 -11 -4 -10 4 -24 7 -32 7 -8 0 -14 4 -14 9 0 11 49 1 57 -12z"/>
<path d="M8345 7970 c-93 -4 -204 -13 -245 -19 -41 -5 -101 -10 -133 -11 -31
0 -65 -4 -75 -9 -36 -18 -171 -43 -280 -51 -62 -5 -118 -13 -125 -18 -7 -5
-50 -15 -97 -22 -47 -7 -128 -25 -180 -41 -173 -53 -195 -59 -240 -69 -25 -5
-70 -15 -100 -21 -30 -6 -93 -22 -140 -35 -47 -12 -121 -30 -165 -40 -44 -9
-84 -20 -90 -24 -15 -10 -202 8 -265 26 -30 9 -71 25 -92 35 -68 35 -220 59
-372 59 -119 0 -137 -2 -132 -15 3 -8 1 -15 -4 -15 -6 0 -10 10 -10 23 -1 12
-7 35 -14 52 -8 18 -10 44 -6 67 4 21 4 38 -1 38 -4 0 -47 -43 -95 -95 -84
-92 -89 -95 -130 -95 -55 0 -176 -26 -214 -45 -19 -10 -58 -15 -112 -15 -47 0
-141 -11 -213 -25 -72 -13 -168 -29 -215 -35 -47 -6 -120 -22 -163 -36 -43
-13 -91 -24 -106 -24 -50 0 -109 -28 -145 -67 -35 -39 -35 -39 -163 -56 -323
-43 -432 -51 -559 -42 -58 4 -103 9 -101 11 3 3 -4 37 -14 76 -11 41 -19 105
-19 150 0 70 -2 78 -19 78 -42 0 -51 -11 -51 -59 0 -74 42 -251 60 -252 9 0 7
-3 -6 -9 -12 -4 -24 -15 -27 -23 -4 -11 -27 -17 -74 -22 -145 -13 -312 -38
-307 -46 3 -5 -9 -6 -25 -3 -40 8 -84 -3 -74 -19 5 -9 4 -9 -8 0 -11 9 -40 8
-129 -3 -154 -20 -190 -29 -167 -39 26 -11 198 16 190 29 -4 6 1 5 10 -3 14
-11 28 -12 74 -2 31 6 88 11 127 11 49 0 66 3 56 10 -10 6 19 7 83 3 90 -6
100 -4 127 16 21 15 28 17 24 6 -6 -14 12 -15 147 -12 173 4 426 23 509 37 30
5 138 12 240 15 102 3 241 10 310 16 69 5 238 14 375 19 138 6 318 15 400 20
98 6 151 6 153 0 2 -6 59 -10 135 -11 73 -1 191 -5 262 -9 72 -4 238 -13 370
-19 132 -6 321 -17 420 -25 99 -9 252 -21 340 -27 88 -6 169 -16 179 -21 10
-6 98 -14 195 -19 334 -17 478 -38 748 -109 62 -17 128 -30 147 -30 19 0 36
-5 38 -11 2 -6 35 -15 73 -19 226 -28 293 -38 318 -49 41 -16 211 -57 295 -71
39 -6 72 -15 72 -19 0 -4 17 -17 39 -29 30 -17 55 -22 114 -22 55 0 92 -6 141
-25 37 -14 77 -25 90 -25 13 0 29 -7 36 -15 7 -8 28 -17 47 -21 23 -4 31 -9
22 -14 -14 -9 -162 0 -169 10 -6 8 -146 30 -194 30 -19 0 -36 6 -39 13 -8 20
-88 40 -146 36 -28 -2 -52 0 -54 4 -3 11 -208 69 -224 63 -9 -4 -11 -1 -7 6 5
7 0 9 -14 6 -12 -4 -22 -2 -22 2 0 11 -106 27 -250 40 -63 5 -131 14 -150 20
-62 20 -220 49 -370 69 -36 5 -94 17 -130 26 -48 13 -130 19 -315 23 -183 5
-229 9 -170 13 70 5 65 6 -45 6 -73 0 -160 7 -210 16 -47 9 -179 28 -295 42
-179 22 -252 26 -495 26 -392 1 -638 8 -680 19 -54 15 -621 11 -840 -6 -107
-8 -296 -19 -420 -24 -124 -5 -268 -16 -320 -24 -97 -16 -155 -20 -460 -36
-176 -9 -280 -29 -280 -53 0 -7 -6 -1 -13 13 -12 24 -16 25 -137 28 -96 2
-133 -1 -164 -14 -34 -13 -63 -15 -166 -10 -69 4 -168 2 -220 -3 -52 -6 -147
-15 -210 -21 -63 -6 -149 -15 -190 -21 -41 -6 -151 -15 -245 -19 -93 -4 -183
-12 -198 -19 -16 -6 -56 -11 -90 -11 -169 0 -447 -35 -482 -60 -5 -4 -52 -11
-104 -15 -95 -7 -131 -16 -165 -44 -11 -9 -16 -10 -12 -3 4 7 2 12 -6 12 -19
-1 -101 -44 -105 -55 -2 -6 18 -22 45 -36 39 -21 54 -24 87 -18 22 4 74 8 115
8 118 1 249 20 324 47 38 14 76 22 83 20 7 -3 102 6 211 20 108 13 249 27 312
30 63 3 133 9 155 15 22 5 196 14 386 19 190 5 390 14 445 20 54 5 252 15 439
21 437 14 485 16 633 29 68 5 156 10 196 10 63 0 76 3 87 21 13 18 18 19 61
10 51 -12 426 1 573 19 44 6 116 10 161 10 55 0 84 4 86 12 9 25 550 36 819
17 102 -7 172 -8 201 -2 27 6 54 6 69 1 13 -5 58 -11 99 -14 41 -3 116 -9 167
-14 51 -6 122 -10 158 -10 38 0 64 -4 60 -9 -7 -12 90 -25 144 -19 23 2 42 -1
44 -6 2 -5 55 -13 118 -17 62 -5 128 -10 144 -13 17 -3 98 -6 180 -6 233 -2
412 -18 463 -43 47 -23 52 -34 20 -47 -13 -5 -17 -9 -9 -9 8 -1 24 8 36 19 21
19 24 19 106 5 46 -9 104 -20 129 -26 25 -6 59 -13 75 -16 17 -3 66 -13 110
-24 44 -10 137 -22 208 -26 70 -3 127 -9 127 -14 0 -4 28 -10 62 -14 34 -4 69
-11 78 -16 21 -12 368 -47 578 -59 95 -5 181 -14 191 -20 16 -8 79 -19 193
-35 15 -2 51 -11 80 -22 l53 -18 -90 -6 c-49 -3 -115 -1 -145 3 -72 11 -306
28 -500 37 -85 4 -168 12 -185 18 -52 20 -178 33 -187 20 -5 -8 -8 -7 -8 4 0
26 -79 43 -330 69 -58 7 -175 30 -260 52 -113 29 -187 42 -275 48 -66 5 -145
13 -175 18 -30 6 -131 13 -225 17 -93 3 -214 13 -267 21 -54 8 -116 14 -137
14 -23 0 -43 6 -48 14 -10 17 -212 36 -396 36 -72 0 -150 5 -172 10 -22 6
-150 13 -285 16 -170 4 -259 10 -289 20 -63 20 -414 19 -538 -1 -51 -8 -150
-19 -220 -25 -71 -5 -144 -14 -163 -20 -19 -6 -98 -14 -176 -19 -77 -4 -146
-11 -153 -15 -7 -4 -47 -7 -89 -7 -130 2 -390 -12 -357 -20 17 -4 -21 -7 -90
-8 -66 -1 -190 -3 -275 -6 -85 -3 -204 -5 -264 -5 -60 0 -130 -3 -155 -7 l-46
-8 55 -7 c56 -6 -144 -1 -235 7 -33 3 -42 2 -25 -4 41 -12 -70 -20 -294 -21
-109 0 -204 -4 -210 -7 -11 -7 -322 -20 -531 -23 -60 0 -153 -4 -205 -8 l-95
-7 115 -6 c99 -5 90 -6 -62 -5 -97 1 -171 -3 -165 -7 7 -5 -10 -6 -38 -2 -37
4 -46 3 -35 -5 11 -8 5 -9 -25 -5 -22 3 -53 1 -70 -4 -16 -5 -23 -10 -15 -11
27 -4 -303 -39 -372 -39 -38 -1 -68 -4 -68 -8 0 -5 -28 -6 -61 -5 -79 5 -152
-6 -143 -20 5 -7 0 -9 -14 -6 -12 4 -25 2 -28 -3 -3 -5 -15 -9 -28 -9 -39 0
-84 -20 -89 -41 -3 -11 -1 -16 5 -13 5 3 4 -3 -3 -14 -11 -18 -10 -23 12 -42
82 -70 213 -91 470 -75 76 5 128 4 150 -3 42 -14 523 -45 618 -40 39 1 72 0
74 -3 1 -4 108 -10 237 -14 129 -3 291 -13 360 -20 246 -28 496 -65 539 -80
29 -11 78 -16 145 -16 56 0 160 -4 231 -10 153 -11 570 -7 1095 10 250 8 649
11 1195 8 451 -3 846 -5 878 -6 33 0 56 -4 53 -9 -7 -11 484 -23 964 -23 346
0 1311 18 1405 26 254 22 353 32 367 39 10 4 23 6 30 3 7 -3 3 -6 -9 -6 -13
-1 -23 -5 -23 -11 0 -6 27 -10 63 -9 44 0 56 3 42 9 -13 6 6 9 60 9 55 1 75
-2 65 -9 -10 -6 131 -9 400 -9 228 0 447 -4 486 -9 41 -6 90 -6 115 -1 24 4
138 8 252 9 l209 0 148 -72 c82 -40 149 -76 150 -80 1 -15 -86 -19 -187 -9
-60 6 -179 13 -266 15 -86 3 -161 7 -165 10 -5 3 -177 8 -383 12 -206 3 -389
10 -408 15 -20 5 -52 5 -75 -1 -23 -5 -504 -11 -1069 -14 -1534 -9 -1979 -8
-2105 4 -62 6 -118 8 -124 4 -5 -4 -133 -6 -284 -5 l-274 1 -12 -25 c-8 -19
-19 -25 -43 -25 -17 0 -35 4 -40 8 -27 24 -161 32 -519 32 -292 0 -378 -3
-381 -12 -4 -10 -132 -13 -583 -15 -698 -3 -1288 15 -1372 43 -29 9 -126 18
-275 24 -126 5 -284 14 -350 20 -66 5 -214 14 -330 20 -420 21 -591 35 -608
48 -11 9 -47 13 -114 13 -125 0 -278 6 -323 14 -19 4 -73 18 -119 32 -65 20
-98 24 -140 20 -30 -3 -77 -1 -104 5 -54 11 -67 4 -67 -38 0 -22 86 -84 118
-84 9 0 82 -14 162 -30 80 -16 165 -30 190 -30 25 0 65 -7 90 -16 45 -16 205
-35 455 -55 72 -5 140 -14 153 -19 33 -14 146 -12 161 3 10 10 12 9 9 -2 -2
-12 21 -15 132 -18 74 -1 209 -9 300 -17 91 -9 280 -18 420 -22 140 -3 260
-10 265 -14 12 -9 656 -27 798 -21 58 2 97 -1 97 -7 0 -5 -22 -30 -48 -54 -73
-68 -117 -75 -422 -67 -135 4 -353 8 -485 8 -132 1 -273 6 -314 11 -40 5 -157
12 -260 15 -102 3 -206 7 -231 10 -25 3 -108 7 -185 11 -77 3 -172 11 -211 19
-39 7 -90 11 -113 8 -27 -4 -41 -2 -41 6 0 6 -19 11 -47 11 -27 0 -68 5 -93
11 -61 14 -127 4 -135 -22 -9 -26 -16 -24 -50 19 -28 37 -33 38 -140 56 -60
10 -144 22 -185 27 -123 13 -204 26 -222 33 -13 6 -22 -2 -38 -34 -11 -22 -18
-45 -15 -50 19 -31 182 -85 280 -93 28 -3 68 -9 90 -15 50 -13 216 -36 270
-36 22 -1 45 -4 51 -8 7 -4 27 -10 45 -13 103 -15 211 -25 264 -25 33 0 103
-6 155 -15 152 -23 460 -45 650 -46 96 0 229 -4 295 -9 232 -18 390 -22 433
-12 23 5 42 6 42 2 0 -5 -6 -10 -12 -13 -15 -4 226 -20 290 -19 28 1 62 12 98
32 29 17 54 26 54 20 0 -29 57 -140 78 -151 25 -14 44 -68 30 -86 -5 -6 -8
-35 -6 -64 3 -47 6 -54 35 -70 21 -12 52 -18 86 -18 l54 1 -19 65 c-16 52 -17
67 -7 79 16 20 24 5 33 -61 12 -89 12 -88 67 -81 65 9 103 26 129 59 26 33 38
34 46 3 8 -34 107 -76 178 -76 56 0 136 33 166 69 9 10 25 23 36 29 18 9 24 7
42 -18 40 -53 238 -94 354 -72 35 6 86 14 115 18 50 5 53 8 89 63 l37 58 42
-51 c37 -46 46 -52 91 -57 28 -4 61 -12 73 -19 24 -13 121 -5 121 10 0 5 15
23 34 40 18 18 39 50 45 71 13 43 31 52 31 16 0 -34 57 -105 103 -129 36 -18
53 -20 146 -15 120 5 139 10 147 41 3 11 21 33 39 48 l33 28 47 -26 c45 -26
51 -27 153 -20 104 6 105 6 136 41 17 19 43 37 57 40 22 5 28 2 38 -23 10 -25
30 -37 119 -75 77 -33 112 -43 127 -37 12 5 28 4 35 0 34 -21 168 80 207 154
l15 30 13 -30 c7 -17 39 -53 71 -82 54 -48 63 -52 110 -52 29 0 58 6 70 15 10
8 27 15 37 15 36 0 96 44 113 83 9 20 23 42 31 48 10 9 13 5 13 -19 0 -47 8
-59 61 -86 53 -28 114 -34 167 -15 27 9 35 8 65 -15 32 -25 41 -26 150 -26
l116 0 40 43 c26 27 41 52 41 68 0 16 7 30 17 33 10 4 14 4 11 0 -7 -6 53 -88
77 -107 6 -4 64 -5 130 -1 93 5 148 14 245 41 70 20 129 42 134 51 7 12 14 8
40 -21 27 -31 41 -38 108 -52 121 -24 138 -21 225 34 43 28 80 46 83 40 4 -5
35 -29 70 -54 56 -39 70 -45 114 -45 103 1 200 40 212 86 3 11 12 21 20 21 9
0 14 -7 11 -17 -3 -11 22 -32 87 -73 l91 -57 90 0 c102 0 159 20 183 65 7 14
17 25 23 25 6 0 38 -17 71 -37 36 -22 72 -37 91 -36 60 0 152 27 202 59 45 29
52 38 69 95 10 35 19 78 19 94 0 66 -79 169 -168 218 -66 37 -214 68 -238 49
-6 -5 -32 -13 -56 -17 -41 -7 -55 -16 -136 -91 -25 -23 -56 -38 -53 -26 5 22
-32 66 -79 92 -51 29 -59 31 -146 28 -84 -3 -93 -5 -102 -25 -5 -13 -15 -23
-22 -23 -6 0 -17 -2 -25 -5 -7 -3 -25 6 -40 20 -35 32 -96 34 -144 4 -43 -26
-114 -107 -114 -129 0 -18 -25 -34 -39 -26 -4 3 -20 46 -36 96 l-29 92 -68 34
c-50 25 -80 34 -118 34 -38 0 -49 -3 -44 -12 5 -9 3 -9 -9 1 -22 18 -65 9
-152 -33 -73 -36 -85 -33 -66 16 7 19 20 27 47 33 21 4 50 12 64 19 18 9 44
11 90 5 74 -9 724 -28 1180 -35 168 -3 373 -6 455 -7 156 -3 401 -21 494 -38
30 -5 80 -9 112 -9 32 0 60 -4 63 -9 3 -4 53 -9 111 -9 58 0 129 -6 158 -12
92 -19 101 -20 172 -27 39 -3 94 -14 124 -25 30 -10 69 -18 86 -18 18 0 52 -7
76 -16 24 -8 77 -22 117 -30 40 -7 82 -20 95 -28 12 -8 37 -17 55 -21 29 -6
46 -25 21 -25 -5 0 -8 -4 -5 -9 9 -14 -108 -1 -125 15 -8 8 -43 17 -77 20 -34
4 -62 11 -62 16 0 5 -17 6 -37 3 -30 -5 -35 -4 -23 5 12 9 8 11 -21 7 -20 -3
-83 1 -140 9 -62 8 -153 12 -224 9 -75 -2 -105 -1 -80 4 36 7 32 8 -35 11
-285 9 -317 11 -375 31 -32 11 -72 19 -87 17 -15 -3 -28 -1 -28 2 0 4 -27 13
-60 20 -53 11 -69 11 -125 -5 l-65 -17 -2 -42 -1 -41 -4 38 c-4 37 -6 38 -31
32 -35 -9 -36 -10 -21 -33 50 -69 64 -79 125 -85 32 -4 91 -11 129 -16 63 -9
73 -8 98 10 27 20 27 20 27 0 0 -15 10 -23 43 -31 23 -6 56 -16 74 -21 17 -6
107 -9 200 -9 330 3 443 0 443 -11 0 -8 -27 -9 -91 -4 -65 5 -98 4 -114 -5
-22 -12 -22 -13 -7 -71 11 -46 19 -60 36 -64 11 -2 120 -9 241 -15 121 -6 283
-17 360 -25 77 -8 146 -15 153 -15 7 0 10 -5 7 -11 -5 -7 6 -8 32 -5 28 5 33
4 18 -3 -11 -5 -18 -10 -15 -11 3 -1 77 -3 165 -4 140 -3 447 -31 588 -55 47
-8 48 -7 128 52 48 37 78 66 75 74 -3 7 -2 13 3 13 5 0 12 16 15 35 13 69 -55
149 -162 187 l-33 13 6 60 c4 33 20 94 34 135 20 55 26 83 20 104 -6 20 1 70
21 160 17 72 30 149 31 171 0 22 6 77 13 123 7 50 8 82 2 82 -5 0 -6 3 -3 6
13 14 -15 44 -68 72 l-54 30 -14 -22 c-15 -22 -22 -52 -36 -156 -10 -74 -29
-157 -42 -182 -14 -27 -11 -49 9 -72 14 -17 14 -19 0 -8 -22 17 -27 7 -38 -80
-5 -40 -14 -91 -19 -113 -6 -22 -24 -116 -41 -209 -17 -94 -41 -192 -52 -218
-19 -45 -23 -49 -52 -46 -28 3 -31 7 -38 48 -5 29 -3 79 7 141 8 53 15 116 15
140 0 24 10 64 21 89 11 25 23 73 26 108 3 34 10 65 14 68 5 3 9 27 9 53 0 27
7 111 15 187 8 77 16 193 18 258 l2 119 -67 23 c-38 12 -68 22 -68 21 0 -1 -3
-40 -6 -87 -3 -47 -14 -114 -24 -150 -10 -36 -21 -105 -24 -155 -4 -49 -13
-117 -21 -150 -8 -33 -14 -79 -15 -103 0 -48 -18 -132 -31 -146 -5 -6 -9 -34
-9 -63 0 -31 -6 -63 -15 -76 -8 -13 -19 -53 -24 -89 -6 -40 -20 -85 -36 -112
-30 -50 -39 -52 -117 -19 -42 18 -56 47 -53 108 5 93 28 233 45 275 49 122
102 372 85 399 -3 5 8 38 24 73 21 48 30 86 34 149 4 58 3 75 -3 54 -8 -25 -9
-22 -5 18 4 35 2 46 -7 41 -6 -4 -4 3 5 17 24 34 21 59 -14 112 -37 56 -57 59
-104 15 -34 -32 -35 -36 -60 -199 -14 -91 -25 -183 -25 -204 0 -21 -6 -46 -14
-54 -7 -9 -19 -54 -26 -101 -6 -47 -18 -100 -26 -119 -8 -18 -14 -50 -14 -70
0 -20 -4 -41 -10 -47 -5 -5 -12 -32 -16 -59 -3 -28 -14 -71 -25 -97 -10 -26
-19 -60 -19 -77 0 -26 -4 -31 -25 -31 -24 0 -134 54 -218 107 -23 14 -61 28
-84 31 -51 6 -79 30 -116 104 -26 51 -27 57 -17 131 5 43 12 82 15 87 3 4 9
34 14 67 5 32 14 78 19 103 16 73 40 227 53 338 7 57 16 105 21 108 4 3 8 29
8 58 0 29 4 76 10 104 14 73 -12 140 -48 127 -7 -3 -10 0 -7 5 3 5 -10 17 -29
27 -36 17 -36 17 -73 -14 -21 -17 -37 -38 -37 -47 1 -9 -4 -16 -12 -16 -8 0
-14 -8 -14 -17 -1 -10 -5 -81 -11 -158 -5 -77 -12 -176 -14 -219 -3 -49 -10
-85 -19 -95 -20 -23 -34 -82 -41 -186 -4 -49 -11 -94 -15 -100 -4 -5 -20 -59
-35 -120 -16 -63 -37 -120 -48 -132 l-20 -23 -39 35 c-21 19 -44 35 -51 35 -7
0 -28 11 -47 23 -76 51 -231 126 -275 133 -71 10 -86 28 -89 104 -2 66 18 150
36 150 6 0 8 80 6 228 -4 178 -8 236 -21 270 -9 23 -18 63 -21 90 -8 87 -37
197 -55 212 -10 8 -21 33 -24 54 -7 43 -62 110 -84 102 -7 -3 -15 -1 -18 4 -4
6 -19 10 -36 10 -22 0 -35 -9 -59 -42 l-30 -42 50 -29 c54 -31 62 -45 16 -27
-15 5 -31 10 -35 10 -12 0 0 -74 15 -91 8 -8 16 -31 20 -50 3 -19 9 -43 14
-54 5 -11 14 -35 22 -53 7 -18 18 -30 25 -27 38 14 40 -71 10 -473 -9 -123
-16 -165 -27 -172 -11 -7 -15 -28 -15 -80 l0 -70 -17 40 c-17 40 -18 40 -70
40 l-53 0 0 183 c-1 100 -6 209 -12 242 -6 33 -19 107 -28 165 -10 58 -20 112
-23 120 -3 8 -6 20 -7 25 0 6 -8 26 -17 45 -21 45 -27 64 -44 129 -17 62 -93
231 -105 231 -4 0 -10 -17 -12 -37 l-4 -38 -1 37 -2 37 -107 35 c-65 20 -112
30 -119 25 -6 -5 -13 -7 -16 -4 -3 3 -30 7 -60 10 l-55 5 -30 -64 -29 -64 -16
31 c-9 18 -22 49 -28 69 -6 21 -21 45 -33 53 -27 19 -147 21 -166 3 -11 -10
-13 -10 -7 0 11 18 -64 16 -91 -3 -23 -16 -31 -81 -9 -68 6 4 5 -1 -2 -10 -8
-9 -16 -37 -18 -62 l-4 -45 39 0 c22 0 42 -3 44 -7 3 -5 -19 -6 -48 -5 -50 4
-57 7 -104 57 -43 45 -51 60 -51 92 l0 38 -91 34 -90 34 -42 -30 c-62 -43 -59
-64 22 -148 37 -38 80 -89 95 -112 15 -22 43 -55 61 -72 19 -17 37 -42 41 -56
4 -15 13 -25 23 -25 26 0 148 -273 155 -348 2 -12 8 -28 14 -34 7 -7 12 -21
12 -32 1 -12 7 -32 15 -46 28 -49 10 -130 -28 -130 -41 0 -177 42 -177 55 0 7
-15 26 -32 42 -38 33 -50 61 -89 203 -16 58 -35 110 -43 115 -8 6 -20 30 -27
53 -7 23 -18 47 -26 53 -7 6 -13 15 -13 20 0 5 -18 36 -40 70 -21 33 -42 71
-46 82 -4 12 -22 39 -40 60 -19 20 -34 46 -34 57 0 11 -7 23 -15 26 -8 3 -27
31 -42 61 -29 57 -53 78 -82 70 -11 -3 -16 3 -17 20 -2 29 -1 29 -41 36 -30 6
-33 4 -33 -18 0 -13 -4 -26 -9 -30 -6 -3 -7 9 -4 30 7 45 -15 47 -50 6 -14
-17 -27 -27 -30 -24 -3 3 7 16 24 30 16 14 27 29 23 34 -9 15 -56 10 -78 -8
-20 -17 -20 -17 -6 2 14 18 14 18 -20 -2 -19 -11 -34 -26 -32 -33 1 -6 -3 -10
-10 -7 -7 2 -23 -7 -35 -20 -14 -14 -23 -19 -23 -11 -1 7 -9 -1 -18 -19 l-17
-31 -34 49 c-40 58 -62 65 -186 54 -75 -6 -87 -10 -105 -32 -22 -28 -29 -133
-9 -133 6 0 25 -15 44 -32 18 -18 60 -60 94 -92 34 -33 61 -66 61 -74 0 -23
40 -82 55 -82 17 0 55 -52 55 -74 0 -9 8 -16 20 -16 15 0 20 -7 20 -25 0 -14
15 -44 33 -68 36 -47 63 -104 54 -113 -3 -3 -34 4 -68 16 -79 27 -137 86 -190
192 -21 43 -48 87 -59 98 -11 11 -17 20 -14 20 3 0 -10 22 -30 49 -20 27 -36
55 -36 63 0 16 -84 100 -117 117 -12 6 -29 8 -39 4 -9 -3 -20 0 -24 8 -5 8
-22 33 -39 56 -30 41 -30 41 -73 31 -24 -5 -79 -11 -123 -12 -44 -1 -105 -10
-136 -19 -54 -17 -59 -21 -87 -79 -2 -5 5 -8 16 -8 11 0 22 -7 26 -15 3 -8 12
-15 19 -15 8 0 31 -13 52 -30 21 -16 42 -30 48 -30 5 0 16 -8 24 -17 13 -17
14 -16 10 5 -3 12 -1 22 4 22 5 0 9 -12 9 -27 0 -21 20 -48 84 -113 75 -76 85
-90 91 -132 7 -55 9 -55 -78 -31 -75 20 -133 58 -183 118 -20 25 -44 45 -53
45 -14 0 -14 2 -1 10 11 7 -3 26 -69 89 -75 73 -112 94 -97 54 3 -8 1 -11 -5
-8 -5 4 -7 15 -4 24 4 13 -6 27 -31 46 -21 16 -34 22 -30 14 5 -9 3 -8 -6 2
-7 9 -24 18 -38 21 -109 25 -209 56 -196 61 9 4 82 16 163 27 81 11 156 23
167 25 12 3 53 7 91 9 39 3 82 9 95 14 14 5 39 7 55 5 17 -2 92 12 168 32 76
20 162 38 190 40 29 1 90 8 137 14 47 6 168 11 270 11 101 0 213 6 247 12 48
9 75 9 111 0 26 -6 142 -14 257 -17 283 -7 429 -15 445 -25 7 -5 24 -4 37 1
14 5 44 4 75 -2 60 -12 156 -24 308 -38 58 -6 146 -17 195 -26 50 -8 140 -22
200 -31 61 -9 129 -24 152 -34 45 -20 285 -72 413 -90 65 -9 376 -98 420 -120
9 -4 39 -11 67 -15 28 -3 99 -27 159 -52 60 -24 120 -47 134 -50 14 -4 48 -21
75 -39 28 -18 73 -38 100 -45 28 -6 60 -15 73 -20 13 -5 43 -9 66 -9 34 0 56
-8 97 -36 30 -21 93 -54 140 -75 47 -20 99 -49 114 -63 15 -14 71 -42 124 -62
53 -21 123 -56 156 -80 67 -46 177 -104 259 -135 30 -11 81 -38 113 -60 32
-21 76 -44 98 -50 22 -6 52 -21 67 -34 32 -27 38 -29 131 -49 55 -11 67 -11
67 0 0 25 -46 62 -98 79 -29 9 -73 32 -98 51 -25 19 -49 32 -53 29 -5 -2 -20
4 -34 15 -14 11 -30 20 -37 20 -6 0 -26 11 -43 24 -18 13 -86 56 -152 96 -135
81 -236 149 -247 164 -4 6 -8 24 -8 40 l0 29 -23 -21 c-13 -12 -30 -22 -39
-22 -9 0 -54 17 -100 39 -47 21 -96 42 -109 46 -28 8 -45 15 -209 92 -68 32
-149 73 -179 91 -30 17 -64 32 -75 32 -12 0 -147 40 -301 89 -405 129 -479
151 -514 151 -17 0 -31 5 -31 10 0 6 -9 10 -21 10 -11 0 -94 18 -182 39 -89
22 -198 46 -242 55 -185 37 -395 76 -402 75 -5 -1 -10 -1 -13 0 -3 1 -30 5
-60 7 -30 3 -60 10 -66 15 -6 5 -19 6 -29 3 -9 -4 -20 -2 -24 4 -3 6 -69 15
-146 21 -77 6 -151 12 -165 14 -14 1 -28 6 -32 11 -8 12 -1244 17 -1483 6z
m229 -211 c11 -55 5 -65 -14 -24 -23 49 -24 55 -6 55 7 0 16 -14 20 -31z m294
1 c-7 -10 -14 -17 -17 -15 -4 4 18 35 25 35 2 0 -1 -9 -8 -20z m-148 -26 c0
-2 -7 -4 -15 -4 -8 0 -15 4 -15 10 0 5 7 7 15 4 8 -4 15 -8 15 -10z m229 -24
c11 -24 11 -24 -3 -6 -9 11 -16 24 -16 30 0 12 5 7 19 -24z m-47 -26 c27 -26
53 -42 60 -38 6 4 8 3 5 -4 -10 -15 3 -41 17 -36 9 3 15 -8 19 -34 4 -22 17
-48 32 -62 14 -13 25 -28 25 -34 0 -6 13 -24 28 -41 35 -38 92 -139 92 -164 0
-10 16 -50 35 -87 19 -38 35 -76 35 -85 0 -9 3 -19 7 -23 5 -4 13 -30 19 -57
10 -45 9 -51 -8 -63 -21 -15 -51 -11 -83 11 -11 7 -29 13 -40 13 -27 0 -71 46
-81 83 -4 18 -11 26 -20 23 -10 -4 -12 2 -8 22 4 17 -8 62 -31 127 -20 55 -39
111 -42 125 -9 43 -39 100 -106 203 -21 32 -40 67 -42 79 -3 12 -9 26 -15 32
-12 12 -14 39 -1 32 4 -3 17 1 27 9 10 8 21 15 23 15 2 0 26 -20 53 -46z m915
40 c-3 -3 -12 -4 -19 -1 -8 3 -5 6 6 6 11 1 17 -2 13 -5z m294 -31 c-12 -20
-14 -14 -5 12 4 9 9 14 11 11 3 -2 0 -13 -6 -23z m-348 10 c-7 -2 -19 -2 -25
0 -7 3 -2 5 12 5 14 0 19 -2 13 -5z m-1923 -27 c0 -2 -7 -7 -16 -10 -8 -3 -12
-2 -9 4 6 10 25 14 25 6z m2544 -38 c1 -16 -2 -28 -6 -28 -4 0 -8 11 -8 25 0
23 -4 25 -44 25 -25 0 -47 3 -49 8 -3 4 20 5 51 2 52 -5 55 -7 56 -32z m-3174
-34 c0 -6 -58 14 -78 27 -25 16 -28 25 -9 32 9 3 87 -49 87 -59z m3234 -5 c-7
-12 -31 -11 -38 0 -4 5 4 7 16 3 l23 -5 -20 24 -20 24 22 -19 c13 -10 20 -23
17 -27z m-643 24 c-11 -5 -11 -7 0 -14 10 -6 8 -9 -8 -9 -13 0 -23 4 -23 9 0
10 18 19 35 19 6 0 4 -2 -4 -5z m-3039 -12 c13 -5 93 -20 178 -33 133 -20 159
-27 185 -49 16 -14 48 -36 69 -49 36 -22 37 -24 18 -31 -35 -13 -148 -13 -527
0 -369 12 -384 12 -660 -24 -39 -6 -39 -5 -15 9 40 22 347 113 425 124 39 6
105 14 148 17 62 5 79 11 87 26 12 21 53 25 92 10z m3603 -31 c3 -5 1 -10 -4
-10 -6 0 -11 5 -11 10 0 6 2 10 4 10 3 0 8 -4 11 -10z m-4463 -21 c9 -5 34 -9
54 -9 25 0 35 -3 28 -10 -6 -6 -108 -12 -244 -14 -129 -3 -311 -6 -405 -8 -93
-2 -175 -6 -180 -10 -20 -12 -369 -31 -405 -21 -34 9 -32 10 50 27 122 26 352
47 595 56 237 8 481 3 507 -11z m4263 -9 c3 -6 21 -10 38 -10 18 0 64 -9 103
-21 62 -18 73 -25 78 -48 3 -14 15 -37 26 -51 l20 -25 1 25 c1 17 4 13 9 -15
5 -22 15 -65 24 -95 61 -221 75 -286 87 -412 9 -111 9 -149 -1 -198 -7 -33
-18 -60 -24 -60 -61 1 -85 14 -121 66 -21 30 -41 54 -46 54 -16 0 -37 54 -54
139 -9 47 -21 92 -25 100 -18 38 -29 68 -33 96 -9 64 -76 284 -123 406 -21 54
-14 85 15 69 11 -5 23 -15 26 -20z m-985 -30 l20 -40 -30 0 c-22 0 -30 5 -30
18 0 20 11 62 16 62 2 0 13 -18 24 -40z m-1872 -23 c4 -43 -6 -47 -30 -12 -20
27 -14 58 11 53 11 -2 17 -16 19 -41z m2618 29 c23 -29 111 -224 120 -265 7
-31 20 -76 29 -101 10 -25 19 -76 22 -115 2 -38 8 -79 13 -90 25 -59 59 -194
53 -213 -7 -27 -33 -28 -91 -2 -23 10 -58 22 -77 26 -41 7 -50 21 -58 84 -3
25 -34 133 -68 240 -34 107 -70 226 -80 264 -11 38 -32 93 -49 122 -21 37 -26
54 -17 58 10 4 199 -3 203 -8z m534 -6 c18 -12 2 -12 -25 0 -13 6 -15 9 -5 9
8 0 22 -4 30 -9z m-2763 -6 c-3 -3 -12 -4 -19 -1 -8 3 -5 6 6 6 11 1 17 -2 13
-5z m2783 -56 c0 -4 -6 -8 -14 -8 -8 0 -17 4 -20 8 -2 4 4 8 15 8 10 0 19 -4
19 -8z m-4825 -68 c3 -5 1 -10 -4 -10 -6 0 -11 5 -11 10 0 6 2 10 4 10 3 0 8
-4 11 -10z m3149 -78 c6 -40 5 -43 -9 -28 -9 8 -26 22 -37 31 l-22 15 24 25
c28 29 34 23 44 -43z m2196 42 c0 -8 -19 -13 -24 -6 -3 5 1 9 9 9 8 0 15 -2
15 -3z m-3340 -34 c0 -5 -7 -7 -15 -4 -8 4 -15 8 -15 10 0 2 7 4 15 4 8 0 15
-4 15 -10z m2947 -76 c3 -8 -1 -22 -9 -31 -14 -13 -17 -12 -31 16 -15 30 -15
31 9 31 14 0 27 -7 31 -16z m-4852 -44 c8 -13 -25 -13 -45 0 -12 8 -9 10 12
10 15 0 30 -4 33 -10z m80 -10 c3 -5 -1 -10 -10 -10 -9 0 -13 5 -10 10 3 6 8
10 10 10 2 0 7 -4 10 -10z m-265 -4 c0 -2 -7 -7 -16 -10 -8 -3 -12 -2 -9 4 6
10 25 14 25 6z m383 -13 c-7 -2 -19 -2 -25 0 -7 3 -2 5 12 5 14 0 19 -2 13 -5z
m2955 -18 c-3 -3 -9 2 -12 12 -6 14 -5 15 5 6 7 -7 10 -15 7 -18z m-2670 -22
c-10 -2 -26 -2 -35 0 -10 3 -2 5 17 5 19 0 27 -2 18 -5z m-3335 -40 c-7 -2
-19 -2 -25 0 -7 3 -2 5 12 5 14 0 19 -2 13 -5z m6087 -13 c12 -8 11 -10 -7
-10 -13 0 -23 5 -23 10 0 13 11 13 30 0z m-2843 -76 c-3 -3 -12 -4 -19 -1 -8
3 -5 6 6 6 11 1 17 -2 13 -5z m-4289 -30 c2 -1 -28 -4 -67 -6 -68 -3 -86 7
-26 14 27 4 85 -1 93 -8z m-738 -14 c0 -5 -10 -10 -22 -9 -22 0 -22 1 -3 9 11
5 21 9 23 9 1 1 2 -3 2 -9z m3213 -7 c-7 -2 -21 -2 -30 0 -10 3 -4 5 12 5 17
0 24 -2 18 -5z m-2590 -20 c-7 -2 -21 -2 -30 0 -10 3 -4 5 12 5 17 0 24 -2 18
-5z m3467 -3 c-32 -5 -7 -7 85 -10 315 -7 375 -4 375 15 0 6 3 6 8 -1 4 -6
113 -15 287 -23 154 -7 321 -16 370 -21 149 -14 293 -30 430 -46 72 -9 174
-16 228 -16 54 -1 93 -4 87 -8 -6 -4 42 -12 107 -19 65 -7 163 -21 217 -32 55
-10 102 -16 104 -14 3 3 11 0 18 -6 7 -5 45 -12 86 -15 40 -3 94 -14 120 -25
27 -11 58 -17 75 -13 16 3 84 -9 163 -30 196 -50 325 -63 936 -97 83 -4 231
-15 328 -24 97 -8 222 -15 277 -15 59 0 99 -4 99 -10 0 -6 62 -10 165 -10 117
0 165 3 165 11 0 9 68 10 253 7 204 -4 259 -8 291 -22 21 -9 63 -19 92 -22 30
-4 54 -10 54 -14 0 -14 -85 -20 -145 -10 -78 13 -419 12 -515 -1 -103 -14
-589 -13 -626 2 -19 7 -187 13 -504 16 -357 5 -480 9 -495 19 -35 21 -174 45
-330 55 -82 5 -158 12 -167 15 -10 3 -48 9 -85 14 -99 13 -271 46 -327 64 -27
8 -108 18 -180 22 -86 5 -150 13 -186 26 -30 10 -98 23 -150 28 -52 5 -109 14
-125 18 -17 5 -103 12 -190 16 -88 4 -220 12 -293 17 -131 11 -134 11 -157
-11 l-24 -23 -6 25 -6 24 -277 14 c-152 7 -412 15 -577 17 -286 4 -333 2 -620
-29 -138 -15 -190 -18 -465 -29 -156 -5 -277 -15 -313 -24 -32 -7 -64 -12 -71
-9 -13 5 -547 -30 -641 -42 -27 -4 -79 -8 -115 -9 -36 0 -139 -7 -230 -13
-137 -10 -1120 -22 -1500 -19 -277 2 -431 -2 -561 -18 -37 -4 -48 -2 -53 10
-3 9 -2 14 3 11 5 -3 25 1 45 9 20 9 48 15 64 14 66 -2 372 15 372 21 0 4 82
10 183 13 359 11 443 15 512 26 39 6 219 16 400 22 182 6 472 17 645 24 173 7
394 15 490 19 96 3 220 10 275 16 237 23 489 39 601 37 78 -1 126 2 135 9 8 7
57 14 109 17 52 3 156 15 230 26 74 11 182 22 240 23 103 1 103 2 35 8 -53 5
-36 7 75 7 87 0 127 -3 100 -7z m3273 3 c-13 -2 -33 -2 -45 0 -13 2 -3 4 22 4
25 0 35 -2 23 -4z m-5045 -30 c-10 -2 -26 -2 -35 0 -10 3 -2 5 17 5 19 0 27
-2 18 -5z m3829 1 c-3 -3 -12 -4 -19 -1 -8 3 -5 6 6 6 11 1 17 -2 13 -5z
m-3059 -31 c-16 -2 -40 -2 -55 0 -16 2 -3 4 27 4 30 0 43 -2 28 -4z m-3508
-17 c0 -2 -8 -10 -17 -17 -16 -13 -17 -12 -4 4 13 16 21 21 21 13z m6613 -23
c-7 -2 -21 -2 -30 0 -10 3 -4 5 12 5 17 0 24 -2 18 -5z m1254 -9 c-3 -3 -12
-4 -19 -1 -8 3 -5 6 6 6 11 1 17 -2 13 -5z m-7820 -20 c-3 -3 -12 -4 -19 -1
-8 3 -5 6 6 6 11 1 17 -2 13 -5z m686 -1 c-7 -2 -19 -2 -25 0 -7 3 -2 5 12 5
14 0 19 -2 13 -5z m277 -23 c8 -5 11 -10 5 -10 -5 0 -17 5 -25 10 -8 5 -10 10
-5 10 6 0 17 -5 25 -10z m677 4 c-3 -3 -12 -4 -19 -1 -8 3 -5 6 6 6 11 1 17
-2 13 -5z m-597 -8 c0 -9 -40 -13 -46 -5 -3 5 6 9 20 9 14 0 26 -2 26 -4z
m-967 -43 c-13 -2 -33 -2 -45 0 -13 2 -3 4 22 4 25 0 35 -2 23 -4z m7684 1
c-3 -3 -12 -4 -19 -1 -8 3 -5 6 6 6 11 1 17 -2 13 -5z m4730 -46 c-3 -8 -6 -5
-6 6 -1 11 2 17 5 13 3 -3 4 -12 1 -19z m-9087 -8 c0 -5 -2 -10 -4 -10 -3 0
-8 5 -11 10 -3 6 -1 10 4 10 6 0 11 -4 11 -10z m567 4 c-3 -3 -12 -4 -19 -1
-8 3 -5 6 6 6 11 1 17 -2 13 -5z m1243 -33 c91 -7 244 -16 340 -22 140 -8 332
-22 384 -28 4 -1 5 -8 2 -17 -5 -13 -1 -14 22 -10 62 14 168 5 347 -28 44 -8
115 -15 158 -15 42 -1 77 -5 77 -9 0 -5 29 -14 65 -21 36 -7 63 -17 60 -21 -3
-4 34 -14 81 -21 64 -9 81 -15 68 -22 -19 -11 -48 -11 -347 3 -160 7 -222 7
-236 -1 -14 -9 -32 -7 -82 9 -35 11 -145 30 -244 42 -99 11 -209 24 -244 29
-35 4 -82 4 -105 0 -22 -5 -52 -8 -66 -8 -23 0 -24 1 -5 10 14 6 2 8 -38 4
-32 -3 -56 -1 -53 3 3 5 -117 12 -267 15 -320 8 -1407 -2 -1422 -13 -5 -4
-122 -10 -258 -14 -160 -4 -271 -12 -312 -21 -50 -12 -148 -15 -475 -15 -403
0 -540 5 -540 21 0 4 -9 11 -21 14 -43 14 -3 18 198 21 247 3 408 17 558 49
183 39 471 58 1034 69 167 3 306 8 310 11 10 10 828 -2 1011 -14z m7314 3 c13
-34 7 -44 -29 -44 l-36 0 16 30 c17 33 39 39 49 14z m-10844 -94 c0 -34 0 -34
-35 -18 -39 18 -32 48 12 48 19 0 23 -5 23 -30z m5353 -90 c39 -6 72 -12 74
-14 2 -2 -19 -6 -46 -10 -52 -7 -97 -1 -118 17 -19 14 -16 30 3 23 9 -4 49
-11 87 -16z m2414 -16 c-3 -3 -12 -4 -19 -1 -8 3 -5 6 6 6 11 1 17 -2 13 -5z
m-184 -11 c-7 -2 -21 -2 -30 0 -10 3 -4 5 12 5 17 0 24 -2 18 -5z m104 1 c-3
-3 -12 -4 -19 -1 -8 3 -5 6 6 6 11 1 17 -2 13 -5z m-3533 -19 c3 -8 1 -15 -4
-15 -6 0 -10 7 -10 15 0 8 2 15 4 15 2 0 6 -7 10 -15z m3079 8 c-7 -2 -21 -2
-30 0 -10 3 -4 5 12 5 17 0 24 -2 18 -5z m-100 -10 c-7 -2 -19 -2 -25 0 -7 3
-2 5 12 5 14 0 19 -2 13 -5z m-225 -10 c-15 -2 -42 -2 -60 0 -18 2 -6 4 27 4
33 0 48 -2 33 -4z m-155 -10 c-7 -2 -21 -2 -30 0 -10 3 -4 5 12 5 17 0 24 -2
18 -5z m-8056 -75 c-3 -8 -6 -5 -6 6 -1 11 2 17 5 13 3 -3 4 -12 1 -19z m5146
-105 c-7 -2 -21 -2 -30 0 -10 3 -4 5 12 5 17 0 24 -2 18 -5z m-621 -41 c-2 -7
-8 -9 -11 -4 -3 5 -13 12 -21 15 -8 3 -3 5 11 4 18 -1 25 -6 21 -15z m1147 -4
c0 -13 -3 -17 -6 -10 -2 6 -10 9 -16 5 -7 -4 -6 1 2 10 18 22 21 21 20 -5z
m648 5 c-4 -3 -1 -13 6 -22 11 -14 10 -14 -5 -2 -16 12 -16 31 -1 31 4 0 3 -3
0 -7z m776 -15 c-19 -19 -24 -20 -39 -7 -16 13 -14 15 17 20 19 4 36 7 39 8 2
0 -5 -9 -17 -21z m514 -10 c-3 -7 -5 -2 -5 12 0 14 2 19 5 13 2 -7 2 -19 0
-25z m-2959 6 l37 -16 -29 -9 c-17 -5 -30 -7 -31 -6 0 1 -9 12 -19 25 -23 26
-10 28 42 6z m732 1 c6 -7 13 -20 14 -27 2 -7 7 -22 11 -32 15 -34 -64 -156
-100 -156 -8 0 -21 23 -30 51 -16 46 -16 53 -2 60 8 5 18 25 21 44 12 60 58
93 86 60z m693 8 c-7 -2 -21 -2 -30 0 -10 3 -4 5 12 5 17 0 24 -2 18 -5z m297
3 c0 -2 -8 -10 -17 -17 -16 -13 -17 -12 -4 4 13 16 21 21 21 13z m-373 -13
c-4 -3 1 -16 10 -27 18 -21 18 -21 -4 -2 -20 16 -23 36 -6 36 4 0 3 -3 0 -7z
m1583 3 c0 -2 -8 -10 -17 -17 -16 -13 -17 -12 -4 4 13 16 21 21 21 13z m-1755
-16 c3 -5 1 -10 -4 -10 -6 0 -11 5 -11 10 0 6 2 10 4 10 3 0 8 -4 11 -10z
m-6148 -32 c-3 -8 -6 -5 -6 6 -1 11 2 17 5 13 3 -3 4 -12 1 -19z m6560 -32
c10 -9 -38 -134 -53 -140 -28 -11 -57 -6 -69 11 -16 21 -5 63 31 114 23 34 28
36 56 28 17 -4 33 -10 35 -13z m463 4 c0 -5 -9 -14 -19 -19 -16 -9 -18 -8 -14
9 5 20 33 29 33 10z m-2498 -47 c-8 -27 -17 -55 -20 -63 -3 -10 -8 -4 -16 17
-6 17 -14 35 -18 38 -17 17 -57 -8 -94 -59 -56 -79 -97 -73 -140 22 l-14 32
-92 0 -91 0 -39 -41 -39 -41 -23 21 c-16 15 -42 24 -80 28 -75 8 -127 -15
-149 -65 -9 -20 -28 -55 -42 -77 l-24 -40 -1 45 c0 27 8 61 20 83 11 20 20 42
20 48 0 15 59 63 89 72 22 7 362 20 677 25 l92 2 -16 -47z m1593 20 c22 -24
25 -34 20 -68 -8 -52 -14 -57 -73 -63 l-49 -4 -7 57 c-6 51 -4 61 15 82 30 31
62 29 94 -4z m720 -8 c53 -33 54 -35 48 -72 -8 -50 -27 -87 -59 -112 -22 -17
-35 -19 -92 -14 -106 9 -128 44 -68 102 19 18 37 44 40 57 22 87 46 94 131 39z
m-1595 7 l22 -18 -25 -50 c-23 -46 -25 -55 -18 -139 5 -54 4 -98 -2 -109 -5
-11 -7 -49 -4 -85 6 -62 4 -68 -23 -100 l-28 -33 -32 22 c-27 20 -80 104 -80
129 0 6 20 33 45 61 42 47 45 55 45 106 0 35 -7 69 -19 93 l-20 38 42 51 c46
55 63 61 97 34z m2403 -60 c-3 -9 -17 -32 -30 -49 l-24 -32 -45 21 c-62 31
-67 56 -18 101 l38 35 43 -29 c31 -21 41 -34 36 -47z m-2743 53 c0 -8 -4 -15
-10 -15 -5 0 -7 7 -4 15 4 8 8 15 10 15 2 0 4 -7 4 -15z m2370 -17 c52 -36 55
-47 27 -108 -43 -94 -119 -114 -171 -45 -26 34 -37 98 -21 114 6 5 27 14 47
20 20 7 42 19 48 27 17 19 32 18 70 -8z m589 -34 c13 -55 13 -56 -15 -85 -35
-37 -67 -33 -106 13 -26 30 -27 33 -10 51 17 20 101 77 112 77 4 0 12 -25 19
-56z m-4289 -5 c0 -16 -4 -29 -9 -29 -5 0 -23 -12 -40 -26 l-31 -26 -21 47
c-11 26 -19 48 -17 49 1 2 23 10 48 18 53 17 70 8 70 -33z m1158 -23 c13 -66
13 -69 -9 -92 -16 -17 -33 -24 -61 -24 l-38 0 0 48 c0 27 7 70 16 96 15 44 18
47 47 44 30 -3 32 -6 45 -72z m3550 67 c-10 -2 -26 -2 -35 0 -10 3 -2 5 17 5
19 0 27 -2 18 -5z m4095 -20 c-7 -2 -21 -2 -30 0 -10 3 -4 5 12 5 17 0 24 -2
18 -5z m-6929 -74 c44 -52 24 -119 -40 -135 -16 -4 -36 -13 -45 -21 -15 -12
-17 -10 -23 24 -13 81 -8 106 26 135 42 35 51 35 82 -3z m-439 -21 c27 -41 27
-42 11 -72 -9 -17 -25 -41 -35 -53 -18 -22 -20 -22 -70 -7 -28 8 -51 17 -51
20 0 2 14 31 30 64 17 33 30 66 30 75 0 10 10 15 29 15 22 0 34 -9 56 -42z
m3106 -5 c10 -38 10 -48 0 -51 -7 -2 -28 -17 -46 -33 l-32 -29 -7 56 c-6 51
-4 56 21 79 16 13 33 25 39 25 6 0 17 -21 25 -47z m-1788 -17 c50 -58 56 -79
31 -114 -18 -27 -32 -27 -109 -3 l-60 19 4 48 c2 40 9 54 35 76 17 15 36 27
41 27 6 1 31 -24 58 -53z m-464 7 c23 -93 23 -90 -8 -112 -52 -37 -73 -29 -97
37 -21 58 -21 59 -2 85 16 21 28 27 58 27 37 0 40 -2 49 -37z m-2631 -25 c12
-34 11 -39 -19 -81 -23 -33 -41 -47 -64 -51 -58 -11 -68 -1 -60 62 8 64 33 96
85 110 40 11 42 10 58 -40z m916 30 c9 -36 7 -75 -6 -103 -12 -28 -26 -27 -85
3 -40 20 -44 55 -12 96 28 35 93 38 103 4z m-2619 -7 c3 -5 0 -13 -6 -17 -7
-4 -9 -3 -5 4 3 5 0 13 -6 15 -9 4 -10 6 -1 6 6 1 14 -3 18 -8z m8532 3 c-3
-3 -12 -4 -19 -1 -8 3 -5 6 6 6 11 1 17 -2 13 -5z m-2529 -81 c11 -20 8 -25
-33 -53 l-46 -31 -19 23 c-15 17 -19 32 -15 58 9 56 15 69 32 72 18 3 63 -35
81 -69z m1979 32 c15 -48 0 -97 -38 -129 -50 -42 -112 -30 -123 24 -7 39 2 80
18 80 6 0 23 8 36 18 21 14 70 37 91 41 3 0 11 -15 16 -34z m-8007 21 c0 -2
-7 -7 -16 -10 -8 -3 -12 -2 -9 4 6 10 25 14 25 6z m2346 -12 c12 -3 28 -20 36
-37 15 -31 14 -34 -14 -74 -29 -43 -56 -53 -86 -34 -7 4 -17 33 -21 64 -10 77
14 100 85 81z m5171 -37 c9 -21 14 -39 12 -41 -2 -2 -34 -6 -71 -10 -63 -6
-68 -5 -68 13 0 44 18 70 52 74 54 7 60 4 75 -36z m1128 33 c3 -5 1 -10 -4
-10 -6 0 -11 5 -11 10 0 6 2 10 4 10 3 0 8 -4 11 -10z m-6723 -143 c-49 -51
-98 -87 -117 -87 -8 0 -6 71 5 115 6 28 21 51 50 76 l42 36 38 -41 39 -41 -57
-58z m1114 58 c-7 -37 -27 -51 -114 -81 -84 -30 -103 -31 -74 -4 12 11 26 20
32 20 5 0 10 23 10 52 0 39 5 57 21 74 l21 23 55 -27 c51 -25 54 -29 49 -57z
m5690 60 c5 -13 9 -13 23 -3 14 12 15 11 2 -4 -7 -10 -25 -17 -40 -17 -17 1
-20 3 -8 6 24 6 21 21 -5 26 l-23 4 23 2 c12 0 25 -6 28 -14z m261 9 c-3 -3
-12 -4 -19 -1 -8 3 -5 6 6 6 11 1 17 -2 13 -5z m76 -1 c-7 -2 -19 -2 -25 0 -7
3 -2 5 12 5 14 0 19 -2 13 -5z m-2215 -15 c7 -7 12 -34 12 -60 0 -37 -4 -50
-17 -56 -20 -7 -100 -8 -108 0 -3 2 -8 25 -11 49 l-6 45 48 16 c62 20 67 21
82 6z m1822 2 c8 -5 11 -10 5 -10 -5 0 -17 5 -25 10 -8 5 -10 10 -5 10 6 0 17
-5 25 -10z m-4536 -25 c49 -46 51 -68 9 -141 -36 -61 -40 -64 -68 -59 -39 7
-46 15 -52 63 -4 28 0 47 11 63 9 13 16 35 16 49 0 16 8 29 23 36 32 16 31 16
61 -11z m1415 -39 c19 -45 18 -84 -3 -99 -6 -4 -35 -14 -63 -23 -51 -15 -54
-15 -83 6 l-30 21 32 46 c41 56 84 93 108 93 13 0 26 -15 39 -44z m-478 11
c21 -18 27 -34 32 -84 6 -56 5 -62 -16 -75 -34 -23 -67 -28 -67 -12 0 8 -15
16 -38 20 l-38 6 38 74 c22 41 36 78 33 84 -12 19 30 9 56 -13z m5806 -54 c-2
-16 -4 -3 -4 27 0 30 2 43 4 28 2 -16 2 -40 0 -55z m-3637 55 c0 -6 10 -31 21
-55 l21 -44 -46 -44 c-25 -25 -46 -49 -46 -53 0 -5 -17 -6 -37 -3 l-38 6 0 95
0 95 50 6 c28 3 56 7 63 7 6 1 12 -3 12 -10z m-791 -32 c40 -41 36 -65 -16
-96 -35 -21 -39 -21 -71 -5 -31 14 -34 19 -28 47 3 17 6 39 6 48 0 16 35 37
66 39 5 1 25 -14 43 -33z m1695 -123 c-36 -35 -70 -63 -75 -63 -11 0 -11 67
-1 93 4 10 37 40 72 68 l65 50 3 -43 c3 -41 1 -45 -64 -105z m-2844 120 c0
-35 -15 -46 -40 -33 l-23 12 24 19 c30 23 39 24 39 2z m916 3 c1 0 5 -24 9
-51 5 -43 3 -55 -15 -78 -18 -22 -29 -27 -66 -27 -25 0 -58 7 -75 15 l-30 16
23 31 c28 37 56 78 64 96 5 10 18 11 48 7 22 -4 42 -8 42 -9z m1517 -19 c26
-20 28 -27 22 -60 -7 -34 -14 -41 -66 -67 l-58 -30 -26 35 c-25 32 -26 35 -11
62 9 15 20 40 26 56 8 23 15 27 47 27 24 0 48 -8 66 -23z m1280 16 c-7 -2 -19
-2 -25 0 -7 3 -2 5 12 5 14 0 19 -2 13 -5z m-4403 -29 c6 -14 10 -45 10 -68 0
-40 -4 -46 -41 -71 -39 -25 -45 -26 -80 -16 -53 16 -61 35 -41 96 15 44 22 51
62 67 62 24 79 22 90 -8z m4307 20 c-3 -3 -12 -4 -19 -1 -8 3 -5 6 6 6 11 1
17 -2 13 -5z m1150 0 c-3 -3 -12 -4 -19 -1 -8 3 -5 6 6 6 11 1 17 -2 13 -5z
m-7282 -28 l30 -24 -75 -79 c-41 -44 -76 -78 -78 -77 -2 1 -9 25 -17 53 -11
43 -11 52 1 62 8 6 14 16 14 22 0 19 53 67 74 67 12 0 34 -11 51 -24z m520
-26 c2 -4 -8 -30 -23 -59 -18 -35 -32 -49 -42 -46 -8 3 -34 9 -58 12 -33 5
-46 12 -55 30 -9 21 -7 27 24 53 19 16 40 29 47 30 7 0 15 6 18 14 5 12 12 11
45 -6 21 -11 41 -23 44 -28z m-1119 -34 c-11 -63 -27 -88 -69 -102 -35 -12
-42 -12 -76 8 -29 17 -37 27 -33 42 9 39 43 76 90 100 43 22 48 22 70 8 21
-14 23 -21 18 -56z m8731 68 c-3 -3 -12 -4 -19 -1 -8 3 -5 6 6 6 11 1 17 -2
13 -5z m-1574 -21 c-7 -2 -21 -2 -30 0 -10 3 -4 5 12 5 17 0 24 -2 18 -5z
m-3550 -24 l37 -10 -16 -32 c-21 -41 -16 -37 -61 -47 -66 -15 -93 19 -69 88 8
25 14 25 109 1z m5260 -43 c7 3 -1 -5 -18 -20 -36 -31 -45 -32 -45 -7 0 11 -3
27 -6 36 -6 16 -5 16 25 1 17 -9 37 -14 44 -10z m-6330 7 c8 -7 -11 -33 -24
-33 -5 0 -9 5 -9 10 0 6 3 9 8 9 19 -3 25 2 12 11 -8 5 -10 10 -4 10 6 0 14
-3 17 -7z m3200 -16 c3 -8 1 -20 -4 -28 -6 -10 -9 -7 -9 14 0 29 5 35 13 14z
m-4041 -29 c-8 -8 -9 -4 -5 13 4 13 8 18 11 10 2 -7 -1 -18 -6 -23z m2886 26
c12 -4 22 -13 22 -20 0 -17 -72 -19 -102 -3 -39 21 22 38 80 23z m3720 -53
c-7 -9 -14 -18 -15 -20 -2 -2 -3 8 -3 22 0 20 4 25 15 21 13 -5 13 -9 3 -23z"/>
<path d="M3420 7910 c-30 -28 -60 -50 -66 -50 -15 0 -26 -28 -17 -42 3 -6 2
-8 -4 -5 -10 7 -50 -100 -40 -109 13 -13 35 6 56 49 12 25 44 66 71 91 28 26
50 52 50 59 0 8 3 8 9 -2 7 -11 13 -9 29 7 11 11 22 19 24 17 2 -2 9 3 16 11
11 12 8 14 -17 14 -16 0 -35 2 -43 5 -7 2 -38 -18 -68 -45z"/>
<path d="M12785 7938 c-11 -7 -35 -11 -52 -10 -32 3 -45 -11 -20 -21 7 -3 5
-6 -5 -6 -10 -1 -18 5 -18 12 0 6 -11 12 -25 12 -14 0 -25 -5 -25 -12 0 -7 -7
-10 -15 -7 -10 4 -24 -4 -37 -21 -20 -26 -22 -26 -29 -8 -7 18 -11 19 -73 8
-37 -6 -67 -15 -67 -20 0 -16 111 -45 173 -45 47 0 60 4 70 20 7 11 17 20 22
20 5 0 1 -8 -8 -19 -16 -17 -15 -19 15 -25 37 -7 100 -7 82 1 -25 9 -13 18 28
21 55 4 106 -14 112 -38 5 -21 52 -29 59 -11 2 6 30 4 70 -4 58 -13 72 -13
109 0 23 8 50 15 60 15 23 0 24 13 3 45 -21 32 -12 31 34 0 20 -14 40 -21 44
-17 4 4 9 24 11 45 4 35 2 40 -28 54 -21 10 -40 13 -52 8 -10 -5 -23 -7 -30
-6 -77 12 -144 16 -152 8 -5 -5 -11 -4 -15 2 -10 15 -215 14 -241 -1z m486
-25 c13 -16 12 -17 -3 -4 -10 7 -18 15 -18 17 0 8 8 3 21 -13z m-492 -39 c12
-11 -9 -10 -44 2 l-40 13 40 -6 c22 -3 42 -7 44 -9z"/>
<path d="M12341 7826 c-6 -7 -30 -16 -52 -19 -23 -3 -51 -15 -63 -26 -12 -12
-32 -21 -45 -21 -12 0 -19 -4 -16 -10 3 -5 16 -10 28 -10 29 1 149 55 140 63
-3 4 11 7 32 7 32 0 36 2 25 15 -16 19 -34 19 -49 1z"/>
<path d="M933 7624 c-7 -3 -13 -15 -13 -26 0 -19 5 -20 103 -14 56 3 107 6
112 6 29 5 148 -10 159 -19 9 -7 16 -7 24 1 17 17 15 35 -5 43 -23 9 -364 17
-380 9z"/>
<path d="M795 7585 c-46 -28 -39 -30 50 -13 40 8 65 18 65 25 0 22 -72 15
-115 -12z"/>
<path d="M1331 7579 c-12 -20 -10 -25 25 -55 22 -18 46 -31 54 -28 8 3 12 2 8
-1 -3 -3 10 -23 28 -43 l34 -37 -36 -31 c-44 -38 -32 -51 22 -24 21 11 45 20
54 20 30 0 53 25 46 48 -9 28 -163 158 -196 167 -19 4 -28 0 -39 -16z"/>
<path d="M11485 7363 c-4 -67 -13 -130 -21 -145 -8 -15 -14 -47 -14 -72 0 -25
-4 -47 -9 -50 -4 -3 -11 -27 -15 -53 -10 -76 -48 -237 -59 -251 -15 -19 -57
-112 -57 -127 0 -21 62 -25 85 -6 20 16 20 16 1 -6 -17 -20 -17 -23 -3 -23 10
0 17 -4 17 -9 0 -5 -9 -7 -19 -4 -14 4 -24 -3 -35 -26 -16 -31 -36 -42 -36
-20 0 8 -5 8 -15 -1 -24 -20 1 -43 42 -38 25 3 32 1 29 -9 -4 -9 3 -13 21 -13
36 0 113 64 112 93 -1 12 8 44 21 70 12 27 20 58 17 68 -3 11 6 39 19 64 14
24 27 52 29 62 2 10 8 38 14 63 6 25 11 62 11 84 0 21 7 68 15 105 8 36 18
126 22 199 8 128 7 133 -12 137 -167 38 -151 47 -160 -92z m75 -46 c0 -2 -10
-12 -22 -23 l-23 -19 19 23 c18 21 26 27 26 19z m-70 -482 c16 -9 19 -14 9
-15 -8 0 -24 7 -35 15 -24 18 -7 19 26 0z m-40 -150 c-7 -9 -15 -13 -17 -11
-7 7 7 26 19 26 6 0 6 -6 -2 -15z m40 -89 c0 -2 -8 -10 -17 -17 -16 -13 -17
-12 -4 4 13 16 21 21 21 13z"/>
<path d="M13245 7431 c-11 -5 -25 -7 -30 -4 -6 2 -53 -5 -106 -16 -90 -19
-155 -44 -171 -66 -4 -5 -8 -7 -8 -3 0 3 -29 -24 -65 -61 -69 -71 -89 -115
-30 -62 50 44 71 53 244 105 l153 47 57 -16 c31 -9 77 -27 103 -41 40 -21 50
-23 72 -13 14 7 26 15 26 19 0 11 -78 70 -92 70 -8 0 -24 7 -36 16 -12 8 -22
12 -22 7 0 -4 -4 -2 -8 4 -10 17 -62 25 -87 14z m-38 -18 c-4 -3 -1 -13 6 -21
10 -13 9 -14 -12 -3 -19 10 -21 15 -10 22 17 10 25 12 16 2z m227 -61 c3 -5
-8 -6 -25 -4 -16 2 -29 6 -29 8 0 8 49 4 54 -4z"/>
<path d="M2290 7359 c0 -5 5 -7 10 -4 6 3 10 8 10 11 0 2 -4 4 -10 4 -5 0 -10
-5 -10 -11z"/>
<path d="M1342 7309 c10 -7 9 -9 -5 -9 -9 0 -38 -19 -62 -41 -35 -32 -43 -45
-34 -55 9 -11 22 -5 70 29 33 23 69 51 80 63 l20 21 -41 0 c-27 0 -37 -3 -28
-8z"/>
<path d="M13467 7293 c-13 -12 16 -33 46 -33 l30 0 -26 20 c-26 21 -39 24 -50
13z"/>
<path d="M13520 7242 c0 -5 11 -19 24 -31 29 -27 80 -23 69 5 -3 8 -12 13 -19
10 -8 -3 -14 0 -14 7 0 8 -4 6 -10 -3 -8 -13 -10 -12 -10 3 0 10 -8 17 -20 17
-11 0 -20 -4 -20 -8z"/>
<path d="M12180 7153 c-7 -43 -15 -100 -16 -128 -8 -115 -27 -271 -35 -281 -5
-6 4 -36 21 -71 l29 -62 -27 -35 c-15 -19 -33 -35 -40 -36 -11 0 -12 -25 -6
-127 6 -113 10 -131 30 -155 12 -15 25 -41 29 -58 8 -35 12 -36 58 -14 l34 16
23 132 c13 72 25 149 27 171 6 69 34 287 44 344 12 70 12 248 0 255 -5 3 -7
16 -3 28 4 17 2 20 -11 15 -9 -3 -21 1 -29 10 -13 17 -97 73 -108 73 -4 0 -12
-35 -20 -77z"/>
<path d="M3168 6913 c6 -2 18 -2 25 0 6 3 1 5 -13 5 -14 0 -19 -2 -12 -5z"/>
<path d="M9153 6253 c59 -2 155 -2 215 0 59 1 10 3 -108 3 -118 0 -167 -2
-107 -3z"/>
<path d="M863 5767 c-36 -19 -41 -25 -36 -47 14 -59 24 -72 75 -94 50 -23 68
-24 342 -30 186 -4 292 -9 296 -16 4 -6 43 -10 96 -9 49 0 168 -2 264 -6 96
-3 279 -8 405 -11 127 -3 257 -10 290 -15 33 -5 92 -9 130 -9 39 0 149 -6 245
-14 96 -7 182 -14 190 -14 8 -1 94 -4 190 -8 96 -4 210 -4 252 0 69 7 80 11
97 35 11 15 18 36 15 47 -5 17 -21 22 -127 34 -69 8 -190 12 -279 11 -122 -3
-158 0 -158 9 0 10 -32 12 -145 8 -81 -4 -148 -2 -151 3 -10 16 -39 10 -74
-16 -19 -14 -37 -25 -40 -25 -4 0 -12 11 -18 25 -11 24 -16 25 -90 25 -43 0
-82 4 -88 9 -11 12 -422 17 -447 6 -12 -5 -31 -1 -56 13 -30 17 -67 24 -172
32 -74 5 -168 10 -210 10 -42 0 -89 4 -105 9 -16 6 -105 15 -199 21 -190 12
-215 14 -265 24 -33 7 -34 7 -16 -8 11 -9 16 -16 11 -16 -5 0 -16 6 -24 14 -9
7 -47 16 -86 19 -60 5 -76 2 -112 -16z"/>
<path d="M10748 5745 c-16 -9 -28 -18 -28 -22 0 -16 24 -83 30 -83 3 0 16 -9
28 -20 14 -13 45 -24 89 -30 38 -5 91 -14 118 -20 28 -6 111 -12 185 -13 l135
-2 3 57 c3 56 3 56 -30 67 -18 5 -67 15 -108 21 -153 23 -178 28 -201 40 -37
20 -189 24 -221 5z"/>
<path d="M1063 5357 c-18 -30 -33 -60 -33 -66 0 -16 75 -51 110 -51 17 0 43
-6 58 -14 15 -7 70 -17 122 -20 52 -4 156 -16 230 -26 363 -50 516 -61 985
-74 138 -3 302 -11 365 -16 151 -13 454 -13 558 0 68 9 88 8 115 -4 29 -14
126 -18 527 -26 116 -2 922 10 929 14 5 3 222 7 482 8 261 1 456 5 434 9 -22
3 55 7 170 9 116 1 214 2 219 1 5 -1 183 3 395 9 212 6 586 11 829 11 346 0
443 2 439 12 -3 9 122 11 576 9 320 -2 584 -6 587 -10 8 -11 500 -16 500 -5 0
12 34 9 75 -7 16 -6 31 -8 32 -3 2 4 300 7 664 5 492 -3 664 -1 674 8 11 9
167 10 627 5 337 -4 627 -7 643 -7 17 -1 53 3 82 7 40 6 66 3 121 -14 59 -18
96 -21 229 -21 l158 0 45 39 45 39 -40 41 c-31 33 -46 41 -74 41 -19 0 -73 4
-120 10 -47 5 -189 14 -316 19 -148 6 -231 13 -233 20 -5 16 -699 15 -704 0
-3 -8 -109 -13 -368 -16 -219 -3 -369 -8 -376 -14 -17 -14 -575 -14 -600 -1
-10 6 -147 16 -304 23 -157 7 -364 16 -460 21 -507 24 -956 27 -1250 9 -91 -6
-271 -11 -402 -11 -159 0 -238 -4 -240 -11 -2 -7 -53 -7 -171 2 -117 9 -173 9
-190 2 -12 -6 -47 -9 -77 -7 -34 2 -46 1 -31 -4 13 -4 -88 -9 -225 -10 -164
-2 -253 -7 -262 -14 -18 -15 -237 -17 -252 -2 -7 7 -29 8 -68 2 -75 -12 -2388
-27 -2427 -16 -16 5 -149 10 -295 13 -146 2 -393 9 -550 16 -251 10 -292 10
-343 -4 -52 -14 -63 -14 -103 0 -24 8 -44 19 -44 24 0 5 -45 9 -101 9 -106 0
-333 17 -359 27 -8 4 -46 7 -85 9 -38 1 -141 5 -228 8 -87 3 -166 10 -177 16
-23 12 -84 17 -310 25 l-175 7 -32 -55z m637 -67 c-20 -13 -43 -13 -35 0 3 6
16 10 28 10 18 0 19 -2 7 -10z m7188 -25 c-3 -3 -9 2 -12 12 -6 14 -5 15 5 6
7 -7 10 -15 7 -18z m-7695 8 c-7 -2 -21 -2 -30 0 -10 3 -4 5 12 5 17 0 24 -2
18 -5z m788 -50 c13 -16 12 -17 -3 -4 -10 7 -18 15 -18 17 0 8 8 3 21 -13z
m159 10 c-1 -5 -7 -19 -15 -33 -14 -26 -13 -27 -30 25 -3 11 3 15 20 15 14 0
25 -3 25 -7z m3083 0 c-7 -2 -21 -2 -30 0 -10 3 -4 5 12 5 17 0 24 -2 18 -5z
m3645 0 c-10 -2 -28 -2 -40 0 -13 2 -5 4 17 4 22 1 32 -1 23 -4z m-6848 -17
c0 -2 -8 -10 -17 -17 -16 -13 -17 -12 -4 4 13 16 21 21 21 13z m1050 0 c0 -2
-8 -10 -17 -17 -16 -13 -17 -12 -4 4 13 16 21 21 21 13z m5876 -42 c-4 -12
-10 -13 -26 -4 -21 11 -21 11 2 30 19 15 24 16 26 4 2 -8 1 -22 -2 -30z
m-6386 16 c0 -14 -7 -20 -22 -20 -20 0 -21 1 -3 20 10 11 20 20 22 20 1 0 3
-9 3 -20z m1409 -27 c6 -4 -40 -53 -50 -53 -16 0 -40 53 -35 76 l6 23 38 -21
c20 -12 39 -23 41 -25z m391 32 c10 -13 10 -19 -5 -35 -10 -11 -22 -20 -28
-20 -5 0 1 8 13 18 30 24 18 45 -22 40 -16 -3 -31 -1 -34 4 -9 15 63 8 76 -7z
m-290 -16 c0 -5 -12 -9 -26 -9 -22 0 -24 2 -14 14 12 15 40 11 40 -5z m155
-19 c-16 -32 -29 -37 -41 -19 -4 7 4 20 17 30 34 27 42 23 24 -11z m-1138 14
c-3 -3 -12 -4 -19 -1 -8 3 -5 6 6 6 11 1 17 -2 13 -5z m708 -4 c14 -6 2 -9
-40 -9 -42 0 -54 3 -40 9 11 5 29 9 40 9 11 0 29 -4 40 -9z m1500 -11 c16 -6
12 -8 -16 -8 -22 -1 -42 5 -50 15 -11 13 -9 14 17 8 16 -4 38 -11 49 -15z
m1902 6 c0 -11 -4 -12 -14 -4 -7 6 -13 13 -13 15 0 2 6 4 13 4 8 0 14 -7 14
-15z m3063 11 c0 -2 -8 -10 -17 -17 -16 -13 -17 -12 -4 4 13 16 21 21 21 13z
m453 -3 c-7 -2 -19 -2 -25 0 -7 3 -2 5 12 5 14 0 19 -2 13 -5z m97 3 c0 -2 -7
-7 -16 -10 -8 -3 -12 -2 -9 4 6 10 25 14 25 6z m-4017 -13 c-7 -2 -19 -2 -25
0 -7 3 -2 5 12 5 14 0 19 -2 13 -5z m3727 -3 c0 -13 -30 -13 -50 0 -11 7 -7
10 18 10 17 0 32 -4 32 -10z m123 3 c-7 -2 -19 -2 -25 0 -7 3 -2 5 12 5 14 0
19 -2 13 -5z m-3930 -10 c-7 -2 -21 -2 -30 0 -10 3 -4 5 12 5 17 0 24 -2 18
-5z m-3596 -18 c0 -8 -9 -15 -21 -15 -20 0 -20 0 0 15 10 8 19 15 20 15 0 0 1
-7 1 -15z"/>
<path d="M6053 4633 c-101 -2 -183 -7 -183 -12 0 -4 -102 -11 -227 -15 -672
-20 -814 -25 -823 -31 -6 -3 -25 -1 -43 6 -25 9 -67 9 -182 0 -83 -6 -222 -14
-310 -17 -88 -2 -176 -7 -195 -11 -19 -3 -39 -5 -45 -4 -9 3 -453 -8 -1070
-24 -99 -3 -198 -9 -221 -13 -23 -5 -65 -5 -95 0 -91 13 -159 19 -269 22 -58
2 -143 10 -190 19 -52 10 -136 17 -216 17 -123 0 -132 -1 -151 -22 -26 -30
-45 -80 -41 -109 3 -25 53 -45 72 -29 12 9 82 -37 84 -55 1 -5 18 -10 37 -9
118 1 156 5 150 14 -4 6 7 10 26 10 18 0 42 8 53 18 l21 17 -20 -24 -20 -24
32 5 c18 2 30 0 27 -4 -3 -5 41 -9 98 -10 56 0 150 -2 208 -4 103 -3 300 -4
732 -3 195 0 217 2 221 17 4 15 5 15 6 -1 1 -18 25 -18 569 -12 312 3 593 6
625 5 36 -1 57 3 57 10 0 6 4 8 10 5 8 -5 94 -1 463 24 54 3 108 3 119 -2 11
-4 69 -1 128 8 86 12 119 12 170 3 50 -10 64 -10 68 0 3 9 44 12 150 12 183 0
461 17 527 32 29 6 138 11 267 10 196 -1 217 1 221 16 3 12 5 10 6 -6 1 -23 3
-24 64 -19 34 3 125 5 203 6 118 0 148 3 188 21 56 24 96 26 96 5 0 -29 43
-39 170 -39 69 0 512 1 985 2 515 2 880 -1 910 -7 29 -5 56 -6 66 0 24 12 846
12 943 -1 56 -7 82 -7 86 1 11 16 985 15 1140 -2 124 -13 210 -12 210 4 0 8 3
7 9 -3 8 -11 58 -15 281 -18 250 -4 274 -3 306 14 29 16 34 24 34 56 0 21 -3
38 -8 38 -4 0 -16 15 -26 34 l-18 34 -197 6 c-108 4 -228 11 -267 17 -40 5
-94 10 -120 11 -27 0 -130 1 -229 2 -573 8 -3498 7 -3545 0 -30 -5 -75 -6
-100 -3 -51 8 -1748 18 -2027 12z m3828 -72 c-15 -21 -27 -28 -41 -24 -11 3
-20 9 -20 12 0 9 45 32 78 40 2 1 -6 -12 -17 -28z m-6954 -47 c-3 -3 -12 -4
-19 -1 -8 3 -5 6 6 6 11 1 17 -2 13 -5z m4058 -46 c6 -4 2 -8 -7 -8 -10 0 -18
7 -18 17 0 9 3 12 8 7 4 -5 12 -12 17 -16z m2095 -8 c0 -5 -7 -7 -15 -4 -8 4
-15 8 -15 10 0 2 7 4 15 4 8 0 15 -4 15 -10z m3252 3 c-6 -2 -10 -9 -6 -14 3
-5 -4 -9 -16 -9 -17 0 -19 2 -8 15 7 8 20 14 28 14 10 0 11 -2 2 -6z m-3365
-9 c-3 -3 -12 -4 -19 -1 -8 3 -5 6 6 6 11 1 17 -2 13 -5z m-1274 -11 c-7 -2
-19 -2 -25 0 -7 3 -2 5 12 5 14 0 19 -2 13 -5z m-5661 -40 c-6 -2 -10 -9 -7
-13 3 -5 0 -12 -6 -16 -8 -4 -9 -3 -5 4 4 7 1 12 -6 12 -9 0 -9 3 2 10 8 5 20
9 25 9 6 0 4 -3 -3 -6z m1288 4 c0 -2 -10 -12 -22 -23 l-23 -19 19 23 c18 21
26 27 26 19z"/>
<path d="M8117 4203 c-11 -10 -8 -78 3 -89 7 -7 4 -16 -10 -29 -25 -23 -26
-76 -4 -278 16 -141 16 -151 -1 -207 -15 -50 -17 -82 -12 -212 4 -84 13 -184
22 -223 8 -38 15 -107 15 -152 -1 -49 3 -83 9 -83 7 0 7 -10 0 -29 -12 -34 5
-229 22 -246 25 -25 356 -3 414 28 11 6 24 10 29 9 4 -2 13 2 20 7 6 6 54 13
106 17 78 5 245 29 486 69 18 3 37 12 44 20 8 9 21 13 35 9 26 -6 240 43 328
76 104 39 143 93 98 135 -19 16 -25 16 -148 -8 -70 -14 -202 -36 -293 -47 -91
-12 -168 -24 -172 -27 -5 -2 -8 -13 -8 -23 0 -16 -4 -17 -32 -9 -46 13 -132
11 -283 -6 -180 -20 -164 -24 -153 38 15 79 6 245 -16 285 -12 24 -14 37 -7
46 19 23 16 551 -3 611 -2 6 2 19 10 30 19 25 18 54 -2 76 -15 17 -15 22 1 61
32 80 35 99 19 129 l-15 29 -248 0 c-136 0 -251 -3 -254 -7z m224 -384 c16 -8
18 -13 8 -25 -17 -20 -26 -17 -31 11 -6 28 -4 29 23 14z m146 -166 c-2 -16 -4
-5 -4 22 0 28 2 40 4 28 2 -13 2 -35 0 -50z m-110 -165 c-3 -8 -6 -5 -6 6 -1
11 2 17 5 13 3 -3 4 -12 1 -19z m153 -296 c0 -6 -41 -72 -56 -91 -2 -2 -18 13
-37 33 l-34 36 46 14 c53 17 81 19 81 8z m83 -412 l31 0 -23 -16 c-18 -13 -28
-14 -47 -5 -26 12 -34 37 -8 27 9 -3 30 -6 47 -6z"/>
<path d="M10589 4187 c-40 -34 -65 -108 -98 -287 -62 -340 -82 -487 -95 -702
l-6 -98 72 26 c87 31 160 67 176 86 20 24 91 238 196 588 129 427 136 394 -94
404 -119 5 -126 4 -151 -17z"/>
<path d="M3497 4103 c6 -107 17 -147 49 -172 24 -19 24 -20 4 -26 -15 -5 -20
-15 -20 -42 0 -51 108 -449 137 -507 14 -27 44 -98 69 -159 71 -177 101 -203
270 -231 49 -8 148 -29 219 -47 101 -25 152 -33 230 -33 92 -1 105 2 165 30
36 17 142 81 235 143 l170 112 17 84 c9 46 25 108 36 137 34 94 35 120 7 205
-32 94 -80 185 -147 275 -45 61 -61 73 -170 133 -145 80 -154 84 -376 137
l-177 43 -361 3 -362 3 5 -88z m559 -108 c129 -17 208 -32 232 -44 44 -22 115
-97 193 -201 l56 -75 -7 -185 c-5 -102 -13 -196 -18 -210 -25 -63 -74 -85
-277 -126 -128 -25 -136 -26 -154 -10 -34 31 -82 135 -133 289 -47 144 -51
164 -72 370 -12 119 -20 217 -19 217 2 0 91 -11 199 -25z m-221 -845 c-3 -5
-11 -10 -16 -10 -6 0 -7 5 -4 10 3 6 11 10 16 10 6 0 7 -4 4 -10z"/>
<path d="M5839 4166 c-27 -18 -41 -40 -57 -84 -21 -56 -22 -76 -22 -384 0
-366 6 -447 60 -776 46 -285 42 -278 169 -286 323 -19 750 -30 1141 -30 468 1
550 5 550 31 0 8 -15 48 -32 88 l-33 73 -240 0 c-132 0 -318 5 -414 11 l-174
12 -30 -28 c-17 -16 -31 -23 -34 -17 -16 46 -87 72 -200 73 l-53 1 0 105 c0
87 -3 108 -17 123 -14 13 -18 34 -18 84 0 59 4 71 33 113 28 40 36 46 55 39
12 -4 147 -8 301 -9 l279 -1 13 32 c24 57 21 59 -88 88 -91 23 -123 26 -278
27 -96 1 -204 4 -240 8 l-65 6 -8 75 c-4 41 -12 83 -18 94 -6 10 -6 15 -1 12
6 -4 10 47 9 139 0 83 4 150 9 155 6 6 140 12 324 15 347 5 570 14 570 24 0 3
7 47 14 96 8 50 13 91 12 91 -5 6 -867 24 -1141 24 l-340 0 -36 -24z m566
-1054 c-3 -3 -11 0 -18 7 -9 10 -8 11 6 5 10 -3 15 -9 12 -12z"/>
<path d="M2060 4072 c0 -14 11 -21 26 -15 21 8 17 23 -6 23 -11 0 -20 -4 -20
-8z"/>
<path d="M11309 3921 c-8 -3 -36 -19 -62 -36 -55 -35 -56 -40 -26 -166 22 -94
27 -101 88 -114 38 -8 147 13 163 32 8 10 38 138 38 166 0 4 -7 7 -15 7 -8 0
-15 6 -15 13 -1 11 -36 35 -125 87 -16 10 -37 15 -46 11z"/>
<path d="M3183 3833 c-7 -2 -15 -19 -19 -38 -5 -30 -30 -50 -56 -46 -4 0 -15
-10 -24 -24 -15 -22 -15 -28 2 -77 22 -68 92 -144 145 -158 45 -12 72 -2 90
33 7 12 30 45 51 73 21 28 38 61 38 74 0 36 -75 156 -102 164 -27 7 -107 7
-125 -1z"/>
<path d="M13065 4199 c-4 -6 -5 -12 -2 -15 2 -3 7 2 10 11 7 17 1 20 -8 4z"/>
<path d="M11270 2625 c-18 -19 -30 -35 -24 -35 15 1 66 50 62 61 -2 5 -19 -6
-38 -26z"/>
</g>
</svg>
